<svg width="58" height="80" viewBox="0 0 58 80" fill="none" xmlns="http://www.w3.org/2000/svg">
<path fill-rule="evenodd" clip-rule="evenodd" d="M25.6764 76.0382C16.2863 66.4732 1.27734 51.1847 1.27734 30.9195C1.27734 17.6207 10.0458 1.25293 29.5312 1.25293C49.0166 1.25293 56.8108 17.6207 56.8108 30.9195C56.8108 49.5258 39.3248 67.765 30.0279 77.4622C29.5108 78.0017 29.019 78.5146 28.5569 78.9998C27.684 78.0832 26.7145 77.0957 25.6764 76.0382ZM27.9287 16.0454L27.9284 16.0433C27.7575 14.8323 25.5042 14.8204 25.3653 16.1089L25.7979 23.7269C25.7338 23.9297 24.1319 24.7231 24.0838 24.5322C24.0293 23.4317 24.06 19.5238 24.0764 17.4256C24.0825 16.6464 24.0867 16.1168 24.0838 16.0732C23.9129 14.8323 21.7023 14.8323 21.5261 16.0732C21.5249 16.1067 21.5277 16.45 21.5321 16.9829C21.5481 18.9171 21.5847 23.349 21.5261 24.5322C21.478 24.7231 20.0703 24.2026 20.0009 23.9998L20.2445 16.1089C20.1057 14.8144 17.8576 14.8323 17.6868 16.0433L17.6861 16.0479C17.6359 16.3772 16.8271 21.685 16.8271 23.7269C16.8271 26.8409 18.3062 29.072 20.5062 29.9668L19.8173 44.1706C19.78 44.9939 20.3673 45.6799 21.0989 45.6799H24.5163C25.2532 45.6799 25.8352 44.9879 25.7979 44.1706L25.109 29.9668C27.3037 29.072 28.7881 26.8468 28.7881 23.7269C28.7881 21.6856 27.975 16.3493 27.9287 16.0454ZM33.4924 44.1289L34.2934 33.0867C26.5009 25.4998 33.3536 15.1366 37.7589 15.1366C38.4691 15.1366 39.0405 15.7808 39.0405 16.5683V44.2482C39.0405 45.0416 38.4691 45.6799 37.7589 45.6799H34.7687C34.0211 45.6799 33.4284 44.964 33.4924 44.1289Z" fill="#EB9547"/>
<path d="M25.6764 76.0382L26.0332 75.6879L26.0332 75.6879L25.6764 76.0382ZM30.0279 77.4622L29.667 77.1162L29.667 77.1162L30.0279 77.4622ZM28.5569 78.9998L28.1949 79.3446L28.5569 79.7248L28.919 79.3446L28.5569 78.9998ZM27.9284 16.0433L27.4333 16.1132L27.4342 16.1188L27.9284 16.0433ZM27.9287 16.0454L28.423 15.9701L28.423 15.9699L27.9287 16.0454ZM25.3653 16.1089L24.8682 16.0554L24.8638 16.0962L24.8661 16.1373L25.3653 16.1089ZM25.7979 23.7269L26.2746 23.8775L26.3023 23.7901L26.2971 23.6985L25.7979 23.7269ZM24.0838 24.5322L23.5844 24.557L23.5869 24.6063L23.5989 24.6543L24.0838 24.5322ZM24.0764 17.4256L23.5764 17.4217L23.5764 17.4217L24.0764 17.4256ZM24.0838 16.0732L24.5827 16.0401L24.5815 16.0224L24.5791 16.0049L24.0838 16.0732ZM21.5261 16.0732L21.031 16.0029L21.0273 16.0293L21.0264 16.0559L21.5261 16.0732ZM21.5321 16.9829L22.0321 16.9788L22.0321 16.9788L21.5321 16.9829ZM21.5261 24.5322L22.0109 24.6543L22.023 24.6063L22.0254 24.557L21.5261 24.5322ZM20.0009 23.9998L19.5011 23.9843L19.4983 24.0754L19.5278 24.1617L20.0009 23.9998ZM20.2445 16.1089L20.7443 16.1244L20.7453 16.0899L20.7417 16.0556L20.2445 16.1089ZM17.6868 16.0433L18.1811 16.1184L18.1819 16.1132L17.6868 16.0433ZM17.6861 16.0479L18.1804 16.1232L18.1804 16.123L17.6861 16.0479ZM20.5062 29.9668L21.0056 29.991L21.0227 29.6371L20.6945 29.5036L20.5062 29.9668ZM19.8173 44.1706L19.3179 44.1464L19.3178 44.1479L19.8173 44.1706ZM25.7979 44.1706L26.2973 44.1478L26.2973 44.1464L25.7979 44.1706ZM25.109 29.9668L24.9203 29.5038L24.5925 29.6374L24.6096 29.991L25.109 29.9668ZM34.2934 33.0867L34.7921 33.1229L34.8089 32.8908L34.6422 32.7285L34.2934 33.0867ZM33.4924 44.1289L33.991 44.1671L33.9911 44.165L33.4924 44.1289ZM0.777344 30.9195C0.777344 51.42 15.9552 66.8496 25.3196 76.3885L26.0332 75.6879C16.6174 66.0967 1.77734 50.9494 1.77734 30.9195H0.777344ZM29.5312 0.75293C19.6311 0.75293 12.4265 4.91824 7.70762 10.7858C3.00016 16.6392 0.777344 24.17 0.777344 30.9195H1.77734C1.77734 24.3702 3.93875 17.0677 8.48687 11.4125C13.0236 5.7715 19.9459 1.75293 29.5312 1.75293V0.75293ZM57.3108 30.9195C57.3108 24.1829 55.3387 16.6537 50.8758 10.7961C46.3994 4.92092 39.4339 0.75293 29.5312 0.75293V1.75293C39.1139 1.75293 45.7883 5.76882 50.0803 11.4022C54.3858 17.0532 56.3108 24.3572 56.3108 30.9195H57.3108ZM30.3889 77.8083C35.0351 72.9619 41.7585 65.9503 47.3185 57.8139C52.8736 49.6847 57.3108 40.3716 57.3108 30.9195H56.3108C56.3108 40.0737 52.005 49.1834 46.4929 57.2497C40.9857 65.3087 34.3177 72.2653 29.667 77.1162L30.3889 77.8083ZM28.919 79.3446C29.3804 78.8602 29.8716 78.3478 30.3889 77.8083L29.667 77.1162C29.15 77.6555 28.6576 78.1691 28.1949 78.655L28.919 79.3446ZM25.3196 76.3885C26.3584 77.4466 27.3251 78.4313 28.1949 79.3446L28.919 78.655C28.043 77.7351 27.0707 76.7447 26.0332 75.6879L25.3196 76.3885ZM27.4342 16.1188L27.4345 16.1209L28.423 15.9699L28.4227 15.9678L27.4342 16.1188ZM25.8625 16.1625C25.893 15.8789 26.1645 15.6441 26.6404 15.6388C27.1275 15.6333 27.3992 15.8711 27.4333 16.1132L28.4235 15.9735C28.2868 15.0045 27.3464 14.6308 26.6293 14.6388C25.9011 14.647 24.9765 15.0505 24.8682 16.0554L25.8625 16.1625ZM26.2971 23.6985L25.8645 16.0806L24.8661 16.1373L25.2987 23.7552L26.2971 23.6985ZM23.5989 24.6543C23.6568 24.8842 23.8353 24.9937 23.9572 25.0329C24.0627 25.0668 24.1582 25.0631 24.2079 25.0592C24.3156 25.0507 24.4269 25.02 24.5157 24.9915C24.7049 24.9308 24.9349 24.8322 25.152 24.7276C25.3711 24.6219 25.5956 24.5011 25.7747 24.3892C25.8631 24.334 25.9506 24.2746 26.0235 24.2153C26.0596 24.1859 26.1012 24.1492 26.1397 24.1065C26.17 24.0729 26.238 23.9936 26.2746 23.8775L25.3211 23.5763C25.3372 23.5252 25.3585 23.4898 25.3701 23.4722C25.3826 23.4533 25.3931 23.4412 25.3975 23.4364C25.4055 23.4275 25.406 23.4285 25.3921 23.4398C25.3649 23.462 25.3164 23.4964 25.2448 23.5411C25.1041 23.629 24.9131 23.7326 24.7177 23.8268C24.5202 23.922 24.3368 23.9987 24.21 24.0394C24.141 24.0616 24.1187 24.0631 24.1294 24.0623C24.1305 24.0622 24.1866 24.0562 24.2633 24.0809C24.3565 24.1108 24.5168 24.2041 24.5687 24.4102L23.5989 24.6543ZM23.5764 17.4217C23.5601 19.5081 23.529 23.4377 23.5844 24.557L24.5832 24.5075C24.5296 23.4256 24.5598 19.5396 24.5764 17.4295L23.5764 17.4217ZM23.5849 16.1062C23.5848 16.1042 23.585 16.2175 23.5835 16.4705C23.5821 16.7052 23.5795 17.0319 23.5764 17.4217L24.5764 17.4295C24.5795 17.0401 24.582 16.7124 24.5835 16.4766C24.5848 16.2591 24.5857 16.0857 24.5827 16.0401L23.5849 16.1062ZM22.0211 16.1435C22.0592 15.875 22.3359 15.6425 22.8069 15.6425C23.2781 15.6425 23.5518 15.8747 23.5885 16.1414L24.5791 16.0049C24.445 15.0307 23.5278 14.6425 22.8069 14.6425C22.0858 14.6425 21.1691 15.0305 21.031 16.0029L22.0211 16.1435ZM22.0321 16.9788C22.0299 16.7122 22.0281 16.4935 22.027 16.3372C22.0264 16.259 22.0261 16.197 22.0259 16.1526C22.0257 16.1015 22.0259 16.0865 22.0258 16.0904L21.0264 16.0559C21.0247 16.1036 21.0279 16.4668 21.0321 16.987L22.0321 16.9788ZM22.0254 24.557C22.085 23.3549 22.048 18.9009 22.0321 16.9788L21.0321 16.987C21.0482 18.9332 21.0843 23.3431 21.0267 24.5075L22.0254 24.557ZM19.5278 24.1617C19.5655 24.2718 19.6298 24.3471 19.6661 24.3853C19.7074 24.4289 19.7512 24.4643 19.7881 24.4915C19.8622 24.546 19.9479 24.5956 20.0304 24.6387C20.1981 24.7261 20.4039 24.8129 20.6025 24.8842C20.7989 24.9547 21.0106 25.0182 21.1888 25.0502C21.2724 25.0652 21.3827 25.0799 21.4915 25.0707C21.5445 25.0662 21.6347 25.0535 21.7292 25.0052C21.8351 24.9511 21.964 24.8405 22.0109 24.6543L21.0412 24.4102C21.0821 24.2478 21.1944 24.1555 21.2743 24.1147C21.3429 24.0796 21.3978 24.0751 21.4076 24.0742C21.43 24.0723 21.4219 24.0761 21.3657 24.066C21.2642 24.0477 21.1107 24.0042 20.9404 23.9431C20.7725 23.8827 20.6104 23.8133 20.493 23.7521C20.4331 23.7208 20.3971 23.698 20.3807 23.6859C20.3724 23.6798 20.3787 23.6835 20.3918 23.6972C20.3998 23.7057 20.445 23.7531 20.474 23.8379L19.5278 24.1617ZM19.7448 16.0935L19.5011 23.9843L20.5007 24.0152L20.7443 16.1244L19.7448 16.0935ZM18.1819 16.1132C18.2162 15.8696 18.4886 15.6317 18.9727 15.6365C19.4449 15.6412 19.7165 15.8744 19.7474 16.1623L20.7417 16.0556C20.6337 15.0489 19.7119 14.6438 18.9826 14.6366C18.2653 14.6295 17.3282 15.0061 17.1917 15.9735L18.1819 16.1132ZM18.1804 16.123L18.1811 16.1184L17.1924 15.9682L17.1917 15.9728L18.1804 16.123ZM17.3271 23.7269C17.3271 21.7331 18.1269 16.4739 18.1804 16.1232L17.1918 15.9726C17.1448 16.2806 16.3271 21.637 16.3271 23.7269H17.3271ZM20.6945 29.5036C18.7155 28.6987 17.3271 26.6751 17.3271 23.7269H16.3271C16.3271 27.0067 17.8968 29.4452 20.3178 30.4299L20.6945 29.5036ZM20.3167 44.1948L21.0056 29.991L20.0067 29.9426L19.3179 44.1464L20.3167 44.1948ZM21.0989 45.1799C20.7063 45.1799 20.2898 44.7887 20.3168 44.1933L19.3178 44.1479C19.2701 45.1991 20.0284 46.1799 21.0989 46.1799V45.1799ZM24.5163 45.1799H21.0989V46.1799H24.5163V45.1799ZM25.2984 44.1935C25.3255 44.7854 24.9119 45.1799 24.5163 45.1799V46.1799C25.5946 46.1799 26.345 45.1904 26.2973 44.1478L25.2984 44.1935ZM24.6096 29.991L25.2984 44.1948L26.2973 44.1464L25.6084 29.9426L24.6096 29.991ZM28.2881 23.7269C28.2881 26.6802 26.895 28.6986 24.9203 29.5038L25.2978 30.4298C27.7124 29.4453 29.2881 27.0135 29.2881 23.7269H28.2881ZM27.4344 16.1207C27.4574 16.2714 27.6716 17.6769 27.8799 19.2983C28.0897 20.9319 28.2881 22.7439 28.2881 23.7269H29.2881C29.2881 22.6686 29.08 20.7918 28.8717 19.1709C28.6619 17.5379 28.4464 16.1233 28.423 15.9701L27.4344 16.1207ZM33.7947 33.0506L32.9938 44.0927L33.9911 44.165L34.7921 33.1229L33.7947 33.0506ZM37.7589 14.6366C36.475 14.6366 35.1027 15.3799 33.9176 16.513C32.72 17.6579 31.6524 19.2562 30.9822 21.0953C29.6357 24.7901 29.8863 29.4937 33.9446 33.445L34.6422 32.7285C30.908 29.0928 30.6887 24.8213 31.9218 21.4377C32.5413 19.7377 33.5259 18.271 34.6086 17.2358C35.7039 16.1887 36.8402 15.6366 37.7589 15.6366V14.6366ZM39.5405 16.5683C39.5405 15.5597 38.7972 14.6366 37.7589 14.6366V15.6366C38.141 15.6366 38.5405 16.002 38.5405 16.5683H39.5405ZM39.5405 44.2482V16.5683H38.5405V44.2482H39.5405ZM37.7589 46.1799C38.7959 46.1799 39.5405 45.2642 39.5405 44.2482H38.5405C38.5405 44.819 38.1423 45.1799 37.7589 45.1799V46.1799ZM34.7687 46.1799H37.7589V45.1799H34.7687V46.1799ZM32.9939 44.0906C32.912 45.1583 33.6749 46.1799 34.7687 46.1799V45.1799C34.3673 45.1799 33.9447 44.7698 33.991 44.1671L32.9939 44.0906Z" fill="#FFF4E3"/>
</svg>
