<svg width="57" height="80" viewBox="0 0 57 80" fill="none" xmlns="http://www.w3.org/2000/svg">
<path fill-rule="evenodd" clip-rule="evenodd" d="M25.2291 75.8175C15.839 66.2525 0.830078 50.964 0.830078 30.6988C0.830078 17.4 9.59852 1.03223 29.0839 1.03223C48.5694 1.03223 56.3636 17.4 56.3636 30.6988C56.3636 49.3051 38.8775 67.5443 29.5807 77.2416C29.0635 77.781 28.5717 78.2939 28.1097 78.7791C27.2368 77.8625 26.2673 76.875 25.2291 75.8175ZM16.0073 25.2984C15.2008 25.9479 15.0286 27.1875 15.6222 28.0701C16.2158 28.9527 17.3486 29.1411 18.1552 28.4916L23.5793 24.1183H29.0441C29.4429 24.1183 29.7691 24.4753 29.7691 24.9117C29.7691 25.348 29.4429 25.705 29.0441 25.705H28.3191H25.419C24.617 25.705 23.969 26.414 23.969 27.2917C23.969 28.1693 24.617 28.8783 25.419 28.8783H28.3191H29.0441H32.5922C33.9108 28.8783 35.1887 28.3924 36.2173 27.49L38.2519 25.705H39.9194C40.7215 25.705 41.3695 24.9959 41.3695 24.1183V20.945C41.3695 20.0673 40.7215 19.3583 39.9194 19.3583H32.6692H25.3964C24.0823 19.3583 22.7999 19.8194 21.7441 20.6723L16.0073 25.2984ZM40.6308 35.6316C41.4374 34.9821 41.6096 33.7425 41.016 32.8599C40.4224 31.9773 39.2896 31.7889 38.483 32.4384L33.0589 36.8117H27.5941C27.1953 36.8117 26.8691 36.4547 26.8691 36.0183C26.8691 35.582 27.1953 35.225 27.5941 35.225H28.3191H31.2192C32.0212 35.225 32.6692 34.516 32.6692 33.6383C32.6692 32.7607 32.0212 32.0517 31.2192 32.0517H28.3191H27.5941H24.046C22.7274 32.0517 21.4495 32.5376 20.4209 33.44L18.3863 35.225H16.7188C15.9167 35.225 15.2687 35.9341 15.2687 36.8117V39.985C15.2687 40.8627 15.9167 41.5717 16.7188 41.5717H23.969H31.2373C32.5559 41.5717 33.8338 41.1106 34.8941 40.2577L40.6308 35.6316Z" fill="#48C5AF"/>
<path d="M25.2291 75.8175L24.8723 76.1678L24.8723 76.1678L25.2291 75.8175ZM29.5807 77.2416L29.9416 77.5876L29.9416 77.5876L29.5807 77.2416ZM28.1097 78.7791L27.7476 79.1239L28.1097 79.5041L28.4718 79.1239L28.1097 78.7791ZM15.6222 28.0701L15.2073 28.3492L15.2073 28.3492L15.6222 28.0701ZM16.0073 25.2984L16.3209 25.6878L16.3212 25.6876L16.0073 25.2984ZM18.1552 28.4916L18.4688 28.881L18.469 28.8808L18.1552 28.4916ZM23.5793 24.1183V23.6183H23.4028L23.2654 23.7291L23.5793 24.1183ZM36.2173 27.49L36.547 27.8658L36.547 27.8658L36.2173 27.49ZM38.2519 25.705V25.205H38.0636L37.9221 25.3291L38.2519 25.705ZM21.7441 20.6723L22.0579 21.0615L22.0582 21.0612L21.7441 20.6723ZM41.016 32.8599L40.6011 33.1389L40.6011 33.1389L41.016 32.8599ZM40.6308 35.6316L40.3172 35.2422L40.317 35.2424L40.6308 35.6316ZM38.483 32.4384L38.1694 32.049L38.1691 32.0492L38.483 32.4384ZM33.0589 36.8117V37.3117H33.2354L33.3727 37.2009L33.0589 36.8117ZM20.4209 33.44L20.0912 33.0641L20.0912 33.0642L20.4209 33.44ZM18.3863 35.225V35.725H18.5746L18.7161 35.6009L18.3863 35.225ZM34.8941 40.2577L35.2075 40.6473L35.208 40.6469L34.8941 40.2577ZM0.330078 30.6988C0.330078 51.1993 15.5079 66.6289 24.8723 76.1678L25.5859 75.4672C16.1701 65.876 1.33008 50.7286 1.33008 30.6988H0.330078ZM29.0839 0.532227C19.1838 0.532227 11.9792 4.69754 7.26035 10.5651C2.55289 16.4185 0.330078 23.9493 0.330078 30.6988H1.33008C1.33008 24.1495 3.49149 16.847 8.03961 11.1918C12.5763 5.55079 19.4987 1.53223 29.0839 1.53223V0.532227ZM56.8636 30.6988C56.8636 23.9622 54.8914 16.433 50.4285 10.5754C45.9521 4.70021 38.9867 0.532227 29.0839 0.532227V1.53223C38.6667 1.53223 45.341 5.54812 49.6331 11.1815C53.9386 16.8325 55.8636 24.1365 55.8636 30.6988H56.8636ZM29.9416 77.5876C34.5878 72.7413 41.3112 65.7296 46.8713 57.5932C52.4264 49.464 56.8636 40.1509 56.8636 30.6988H55.8636C55.8636 39.853 51.5577 48.9627 46.0456 57.029C40.5384 65.088 33.8704 72.0446 29.2197 76.8955L29.9416 77.5876ZM28.4718 79.1239C28.9331 78.6395 29.4243 78.1271 29.9416 77.5876L29.2197 76.8955C28.7027 77.4348 28.2103 77.9484 27.7476 78.4343L28.4718 79.1239ZM24.8723 76.1678C25.9111 77.2259 26.8778 78.2106 27.7476 79.1239L28.4718 78.4343C27.5957 77.5144 26.6234 76.524 25.5859 75.4672L24.8723 76.1678ZM16.0371 27.7911C15.582 27.1145 15.7251 26.1677 16.3209 25.6878L15.6937 24.909C14.6764 25.7282 14.4751 27.2605 15.2073 28.3492L16.0371 27.7911ZM17.8416 28.1022C17.2743 28.559 16.4751 28.4424 16.0371 27.7911L15.2073 28.3492C15.9564 29.463 17.4229 29.7233 18.4688 28.881L17.8416 28.1022ZM23.2654 23.7291L17.8414 28.1023L18.469 28.8808L23.8931 24.5076L23.2654 23.7291ZM29.0441 23.6183H23.5793V24.6183H29.0441V23.6183ZM30.2691 24.9117C30.2691 24.2425 29.7604 23.6183 29.0441 23.6183V24.6183C29.1253 24.6183 29.2691 24.7081 29.2691 24.9117H30.2691ZM29.0441 26.205C29.7604 26.205 30.2691 25.5808 30.2691 24.9117H29.2691C29.2691 25.1152 29.1253 25.205 29.0441 25.205V26.205ZM28.3191 26.205H29.0441V25.205H28.3191V26.205ZM25.419 26.205H28.3191V25.205H25.419V26.205ZM24.469 27.2917C24.469 26.6468 24.9345 26.205 25.419 26.205V25.205C24.2994 25.205 23.469 26.1812 23.469 27.2917H24.469ZM25.419 28.3783C24.9345 28.3783 24.469 27.9365 24.469 27.2917H23.469C23.469 28.4021 24.2994 29.3783 25.419 29.3783V28.3783ZM28.3191 28.3783H25.419V29.3783H28.3191V28.3783ZM29.0441 28.3783H28.3191V29.3783H29.0441V28.3783ZM32.5922 28.3783H29.0441V29.3783H32.5922V28.3783ZM35.8875 27.1141C34.9474 27.9389 33.7859 28.3783 32.5922 28.3783V29.3783C34.0357 29.3783 35.4299 28.8459 36.547 27.8658L35.8875 27.1141ZM37.9221 25.3291L35.8875 27.1141L36.547 27.8658L38.5816 26.0808L37.9221 25.3291ZM39.9194 25.205H38.2519V26.205H39.9194V25.205ZM40.8695 24.1183C40.8695 24.7631 40.4039 25.205 39.9194 25.205V26.205C41.039 26.205 41.8695 25.2288 41.8695 24.1183H40.8695ZM40.8695 20.945V24.1183H41.8695V20.945H40.8695ZM39.9194 19.8583C40.4039 19.8583 40.8695 20.3002 40.8695 20.945H41.8695C41.8695 19.8345 41.039 18.8583 39.9194 18.8583V19.8583ZM32.6692 19.8583H39.9194V18.8583H32.6692V19.8583ZM25.3964 19.8583H32.6692V18.8583H25.3964V19.8583ZM22.0582 21.0612C23.0282 20.2777 24.2005 19.8583 25.3964 19.8583V18.8583C23.964 18.8583 22.5715 19.3611 21.4299 20.2833L22.0582 21.0612ZM16.3212 25.6876L22.0579 21.0615L21.4302 20.2831L15.6935 24.9092L16.3212 25.6876ZM40.6011 33.1389C41.0562 33.8155 40.9131 34.7623 40.3172 35.2422L40.9444 36.021C41.9618 35.2018 42.1631 33.6695 41.4309 32.5808L40.6011 33.1389ZM38.7966 32.8278C39.3639 32.371 40.163 32.4876 40.6011 33.1389L41.4309 32.5808C40.6818 31.467 39.2152 31.2067 38.1694 32.049L38.7966 32.8278ZM33.3727 37.2009L38.7968 32.8277L38.1691 32.0492L32.7451 36.4224L33.3727 37.2009ZM27.5941 37.3117H33.0589V36.3117H27.5941V37.3117ZM26.3691 36.0183C26.3691 36.6875 26.8777 37.3117 27.5941 37.3117V36.3117C27.5129 36.3117 27.3691 36.2219 27.3691 36.0183H26.3691ZM27.5941 34.725C26.8777 34.725 26.3691 35.3492 26.3691 36.0183H27.3691C27.3691 35.8148 27.5129 35.725 27.5941 35.725V34.725ZM28.3191 34.725H27.5941V35.725H28.3191V34.725ZM31.2192 34.725H28.3191V35.725H31.2192V34.725ZM32.1692 33.6383C32.1692 34.2832 31.7037 34.725 31.2192 34.725V35.725C32.3388 35.725 33.1692 34.7488 33.1692 33.6383H32.1692ZM31.2192 32.5517C31.7037 32.5517 32.1692 32.9935 32.1692 33.6383H33.1692C33.1692 32.5279 32.3388 31.5517 31.2192 31.5517V32.5517ZM28.3191 32.5517H31.2192V31.5517H28.3191V32.5517ZM27.5941 32.5517H28.3191V31.5517H27.5941V32.5517ZM24.046 32.5517H27.5941V31.5517H24.046V32.5517ZM20.7506 33.8159C21.6908 32.9911 22.8523 32.5517 24.046 32.5517V31.5517C22.6025 31.5517 21.2083 32.0841 20.0912 33.0641L20.7506 33.8159ZM18.7161 35.6009L20.7506 33.8159L20.0912 33.0642L18.0566 34.8492L18.7161 35.6009ZM16.7188 35.725H18.3863V34.725H16.7188V35.725ZM15.7687 36.8117C15.7687 36.1669 16.2343 35.725 16.7188 35.725V34.725C15.5991 34.725 14.7687 35.7012 14.7687 36.8117H15.7687ZM15.7687 39.985V36.8117H14.7687V39.985H15.7687ZM16.7188 41.0717C16.2343 41.0717 15.7687 40.6298 15.7687 39.985H14.7687C14.7687 41.0955 15.5991 42.0717 16.7188 42.0717V41.0717ZM23.969 41.0717H16.7188V42.0717H23.969V41.0717ZM31.2373 41.0717H23.969V42.0717H31.2373V41.0717ZM34.5808 39.8681C33.6055 40.6525 32.4373 41.0717 31.2373 41.0717V42.0717C32.6746 42.0717 34.062 41.5687 35.2075 40.6473L34.5808 39.8681ZM40.317 35.2424L34.5803 39.8685L35.208 40.6469L40.9447 36.0208L40.317 35.2424Z" fill="#8BF5E2"/>
</svg>
