<svg width="57" height="80" viewBox="0 0 57 80" fill="none" xmlns="http://www.w3.org/2000/svg">
<path fill-rule="evenodd" clip-rule="evenodd" d="M25.3131 75.8175C15.923 66.2525 0.914062 50.964 0.914062 30.6988C0.914062 17.4 9.68251 1.03223 29.1679 1.03223C48.6534 1.03223 56.4475 17.4 56.4475 30.6988C56.4475 49.3051 38.9615 67.5443 29.6646 77.2416C29.1475 77.781 28.6557 78.2939 28.1937 78.7791C27.3207 77.8625 26.3513 76.875 25.3131 75.8175ZM28.6842 15.4709C30.9127 15.4709 32.8277 18.9809 33.6396 23.98H23.7289C24.5408 18.9809 26.4557 15.4709 28.6842 15.4709ZM23.4937 32.937C23.3761 31.7894 23.3089 30.597 23.3089 29.3542C23.3089 28.1115 23.3761 26.9191 23.4937 25.7714H33.8691C33.9867 26.9191 34.0539 28.1115 34.0539 29.3542C34.0539 30.597 33.9867 31.7894 33.8691 32.937H23.4937ZM32.6429 16.0531C36.6464 17.2399 39.8884 20.1789 41.4897 23.98H35.4425C34.9498 20.7947 34.0091 17.9452 32.6429 16.0531ZM15.8787 23.98C17.4745 20.1789 20.7221 17.2399 24.72 16.0531C23.3537 17.9452 22.4131 20.7947 21.9259 23.98H15.8787ZM35.6665 25.7714H42.0889C42.3912 26.9191 42.5648 28.1115 42.5648 29.3542C42.5648 30.597 42.3912 31.7894 42.0833 32.937H35.6665C35.7841 31.7614 35.8513 30.5578 35.8513 29.3542C35.8513 28.1506 35.7841 26.947 35.6665 25.7714ZM21.702 25.7714C21.5844 26.947 21.5172 28.1506 21.5172 29.3542C21.5172 30.5578 21.5844 31.7614 21.6964 32.937H15.2796C14.9772 31.7894 14.7981 30.597 14.7981 29.3542C14.7981 28.1115 14.9772 26.9191 15.2796 25.7714H21.702ZM28.6842 43.2376C26.4557 43.2376 24.5408 39.7276 23.7289 34.7284H33.6396C32.8277 39.7276 30.9127 43.2376 28.6842 43.2376ZM41.4953 34.7284C39.894 38.5296 36.6464 41.4686 32.6485 42.6554C34.0147 40.7632 34.9554 37.9138 35.4481 34.7284H41.4953ZM24.7256 42.6554C20.7221 41.4686 17.4801 38.5296 15.8787 34.7284H21.9259C22.4187 37.9138 23.3593 40.7632 24.7256 42.6554Z" fill="#48C5AF"/>
<path d="M25.3131 75.8175L24.9563 76.1678L24.9563 76.1678L25.3131 75.8175ZM29.6646 77.2416L29.3037 76.8955L29.3037 76.8955L29.6646 77.2416ZM28.1937 78.7791L27.8316 79.1239L28.1937 79.5041L28.5557 79.1239L28.1937 78.7791ZM33.6396 23.98V24.48H34.2273L34.1331 23.8999L33.6396 23.98ZM23.7289 23.98L23.2354 23.8999L23.1411 24.48H23.7289V23.98ZM23.4937 32.937L22.9963 32.988L23.0423 33.437H23.4937V32.937ZM23.4937 25.7714V25.2714H23.0423L22.9963 25.7205L23.4937 25.7714ZM33.8691 25.7714L34.3665 25.7205L34.3205 25.2714H33.8691V25.7714ZM33.8691 32.937V33.437H34.3205L34.3665 32.988L33.8691 32.937ZM41.4897 23.98V24.48H42.2429L41.9505 23.7859L41.4897 23.98ZM32.6429 16.0531L32.785 15.5737L31.3791 15.1569L32.2375 16.3458L32.6429 16.0531ZM35.4425 23.98L34.9484 24.0565L35.0139 24.48H35.4425V23.98ZM24.72 16.0531L25.1253 16.3458L25.9843 15.1562L24.5777 15.5738L24.72 16.0531ZM15.8787 23.98L15.4177 23.7865L15.1265 24.48H15.8787V23.98ZM21.9259 23.98V24.48H22.3553L22.4202 24.0556L21.9259 23.98ZM42.0889 25.7714L42.5724 25.644L42.4742 25.2714H42.0889V25.7714ZM35.6665 25.7714V25.2714H35.114L35.169 25.8212L35.6665 25.7714ZM42.0833 32.937V33.437H42.4668L42.5662 33.0666L42.0833 32.937ZM35.6665 32.937L35.169 32.8873L35.114 33.437H35.6665V32.937ZM21.702 25.7714L22.1995 25.8212L22.2545 25.2714H21.702V25.7714ZM21.6964 32.937V33.437H22.2462L22.1941 32.8896L21.6964 32.937ZM15.2796 32.937L14.7961 33.0644L14.8943 33.437H15.2796V32.937ZM15.2796 25.7714V25.2714H14.8943L14.7961 25.644L15.2796 25.7714ZM23.7289 34.7284V34.2284H23.1411L23.2354 34.8086L23.7289 34.7284ZM33.6396 34.7284L34.1331 34.8086L34.2273 34.2284H33.6396V34.7284ZM32.6485 42.6554L32.2431 42.3627L31.3842 43.5523L32.7908 43.1347L32.6485 42.6554ZM41.4953 34.7284L41.9561 34.9226L42.2485 34.2284H41.4953V34.7284ZM35.4481 34.7284V34.2284H35.0195L34.954 34.652L35.4481 34.7284ZM15.8787 34.7284V34.2284H15.1255L15.4179 34.9226L15.8787 34.7284ZM24.7256 42.6554L24.5834 43.1348L25.9893 43.5515L25.1309 42.3627L24.7256 42.6554ZM21.9259 34.7284L22.42 34.652L22.3545 34.2284H21.9259V34.7284ZM0.414062 30.6988C0.414062 51.1993 15.5919 66.6289 24.9563 76.1678L25.6699 75.4672C16.2541 65.876 1.41406 50.7286 1.41406 30.6988H0.414062ZM29.1679 0.532227C19.2678 0.532227 12.0632 4.69754 7.34433 10.5651C2.63687 16.4185 0.414062 23.9493 0.414062 30.6988H1.41406C1.41406 24.1495 3.57547 16.847 8.12359 11.1918C12.6603 5.55079 19.5826 1.53223 29.1679 1.53223V0.532227ZM56.9475 30.6988C56.9475 23.9622 54.9754 16.433 50.5125 10.5754C46.0361 4.70021 39.0707 0.532227 29.1679 0.532227V1.53223C38.7506 1.53223 45.425 5.54812 49.7171 11.1815C54.0226 16.8325 55.9475 24.1365 55.9475 30.6988H56.9475ZM30.0256 77.5876C34.6718 72.7412 41.3952 65.7296 46.9552 57.5932C52.5104 49.464 56.9475 40.1509 56.9475 30.6988H55.9475C55.9475 39.853 51.6417 48.9627 46.1296 57.029C40.6224 65.088 33.9544 72.0446 29.3037 76.8955L30.0256 77.5876ZM28.5557 79.1239C29.0171 78.6395 29.5083 78.1271 30.0256 77.5876L29.3037 76.8955C28.7867 77.4348 28.2943 77.9484 27.8316 78.4343L28.5557 79.1239ZM24.9563 76.1678C25.9951 77.2259 26.9618 78.2106 27.8316 79.1239L28.5557 78.4343C27.6797 77.5144 26.7074 76.524 25.6699 75.4672L24.9563 76.1678ZM34.1331 23.8999C33.7213 21.3645 33.0255 19.1742 32.1272 17.6026C31.245 16.0593 30.0794 14.9709 28.6842 14.9709V15.9709C29.5176 15.9709 30.4237 16.6375 31.259 18.0989C32.0783 19.5322 32.7459 21.5965 33.146 24.0602L34.1331 23.8999ZM23.7289 24.48H33.6396V23.48H23.7289V24.48ZM28.6842 14.9709C27.2891 14.9709 26.1234 16.0593 25.2412 17.6026C24.3429 19.1742 23.6471 21.3645 23.2354 23.8999L24.2224 24.0602C24.6225 21.5965 25.2901 19.5322 26.1094 18.0989C26.9448 16.6375 27.8509 15.9709 28.6842 15.9709V14.9709ZM22.8089 29.3542C22.8089 30.6151 22.8771 31.8246 22.9963 32.988L23.9911 32.8861C23.8751 31.7543 23.8089 30.5789 23.8089 29.3542H22.8089ZM22.9963 25.7205C22.8771 26.8839 22.8089 28.0933 22.8089 29.3542H23.8089C23.8089 28.1296 23.8751 26.9542 23.9911 25.8224L22.9963 25.7205ZM33.8691 25.2714H23.4937V26.2714H33.8691V25.2714ZM34.5539 29.3542C34.5539 28.0933 34.4857 26.8839 34.3665 25.7205L33.3718 25.8224C33.4877 26.9542 33.5539 28.1296 33.5539 29.3542H34.5539ZM34.3665 32.988C34.4857 31.8246 34.5539 30.6151 34.5539 29.3542H33.5539C33.5539 30.5789 33.4877 31.7543 33.3718 32.8861L34.3665 32.988ZM23.4937 33.437H33.8691V32.437H23.4937V33.437ZM41.9505 23.7859C40.2916 19.8482 36.9335 16.8035 32.785 15.5737L32.5008 16.5325C36.3592 17.6763 39.4851 20.5096 41.029 24.1742L41.9505 23.7859ZM35.4425 24.48H41.4897V23.48H35.4425V24.48ZM32.2375 16.3458C33.5379 18.1467 34.4613 20.9074 34.9484 24.0565L35.9367 23.9036C35.4383 20.682 34.4804 17.7438 33.0483 15.7604L32.2375 16.3458ZM24.5777 15.5738C20.4352 16.8035 17.0712 19.848 15.4177 23.7865L16.3397 24.1736C17.8779 20.5098 21.009 17.6763 24.8622 16.5324L24.5777 15.5738ZM22.4202 24.0556C22.9017 20.9072 23.8251 18.1466 25.1253 16.3458L24.3146 15.7604C22.8824 17.7439 21.9245 20.6822 21.4317 23.9044L22.4202 24.0556ZM15.8787 24.48H21.9259V23.48H15.8787V24.48ZM42.0889 25.2714H35.6665V26.2714H42.0889V25.2714ZM43.0648 29.3542C43.0648 28.0643 42.8846 26.829 42.5724 25.644L41.6054 25.8988C41.8979 27.0091 42.0648 28.1586 42.0648 29.3542H43.0648ZM42.5662 33.0666C42.8845 31.8802 43.0648 30.6442 43.0648 29.3542H42.0648C42.0648 30.5498 41.8979 31.6986 41.6003 32.8075L42.5662 33.0666ZM35.6665 33.437H42.0833V32.437H35.6665V33.437ZM35.3513 29.3542C35.3513 30.5394 35.2851 31.7263 35.169 32.8873L36.164 32.9868C36.2831 31.7965 36.3513 30.5762 36.3513 29.3542H35.3513ZM35.169 25.8212C35.2851 26.9821 35.3513 28.169 35.3513 29.3542H36.3513C36.3513 28.1322 36.2831 26.9119 36.164 25.7217L35.169 25.8212ZM22.0172 29.3542C22.0172 28.169 22.0834 26.9821 22.1995 25.8212L21.2044 25.7217C21.0854 26.9119 21.0172 28.1322 21.0172 29.3542H22.0172ZM22.1941 32.8896C22.0834 31.7271 22.0172 30.5395 22.0172 29.3542H21.0172C21.0172 30.5762 21.0854 31.7958 21.1986 32.9845L22.1941 32.8896ZM15.2796 33.437H21.6964V32.437H15.2796V33.437ZM14.2981 29.3542C14.2981 30.6457 14.4843 31.8811 14.7961 33.0644L15.7631 32.8097C15.4702 31.6978 15.2981 30.5484 15.2981 29.3542H14.2981ZM14.7961 25.644C14.4843 26.8274 14.2981 28.0628 14.2981 29.3542H15.2981C15.2981 28.1601 15.4702 27.0107 15.7631 25.8988L14.7961 25.644ZM21.702 25.2714H15.2796V26.2714H21.702V25.2714ZM23.2354 34.8086C23.6471 37.344 24.3429 39.5343 25.2412 41.1058C26.1234 42.6492 27.2891 43.7376 28.6842 43.7376V42.7376C27.8509 42.7376 26.9448 42.071 26.1094 40.6096C25.2901 39.1763 24.6225 37.112 24.2224 34.6483L23.2354 34.8086ZM33.6396 34.2284H23.7289V35.2284H33.6396V34.2284ZM28.6842 43.7376C30.0794 43.7376 31.245 42.6492 32.1272 41.1058C33.0255 39.5343 33.7213 37.344 34.1331 34.8086L33.146 34.6483C32.7459 37.112 32.0783 39.1763 31.259 40.6096C30.4237 42.071 29.5176 42.7376 28.6842 42.7376V43.7376ZM32.7908 43.1347C36.9333 41.905 40.2971 38.8605 41.9561 34.9226L41.0346 34.5343C39.4908 38.1986 36.3594 41.0322 32.5062 42.1761L32.7908 43.1347ZM34.954 34.652C34.4669 37.8011 33.5435 40.5618 32.2431 42.3627L33.0539 42.9481C34.486 40.9647 35.4439 38.0265 35.9423 34.8049L34.954 34.652ZM41.4953 34.2284H35.4481V35.2284H41.4953V34.2284ZM15.4179 34.9226C17.0769 38.8603 20.4349 41.905 24.5834 43.1348L24.8677 42.176C21.0092 41.0322 17.8833 38.1988 16.3395 34.5343L15.4179 34.9226ZM21.9259 34.2284H15.8787V35.2284H21.9259V34.2284ZM25.1309 42.3627C23.8306 40.5618 22.9072 37.8011 22.42 34.652L21.4318 34.8049C21.9301 38.0265 22.8881 40.9647 24.3202 42.9481L25.1309 42.3627Z" fill="#81ECD9"/>
</svg>
