<svg width="58" height="80" viewBox="0 0 58 80" fill="none" xmlns="http://www.w3.org/2000/svg">
<path fill-rule="evenodd" clip-rule="evenodd" d="M25.5904 75.8175C16.2004 66.2525 1.19141 50.964 1.19141 30.6988C1.19141 17.4 9.95985 1.03223 29.4453 1.03223C48.9307 1.03223 56.7249 17.4 56.7249 30.6988C56.7249 49.3051 39.2389 67.5443 29.942 77.2415C29.4249 77.781 28.9331 78.2939 28.471 78.7791C27.5981 77.8625 26.6286 76.875 25.5904 75.8175ZM22.7708 45.0338C21.7793 44.7862 21.1765 43.7814 21.4241 42.7887L23.4233 34.7929L26.4766 37.8461L25.0165 43.6871C24.8053 44.5277 24.051 45.0888 23.222 45.0888C23.0728 45.0888 22.9218 45.072 22.7708 45.0338ZM24.6665 22.2392L22.2854 31.4435C22.1588 31.9305 21.6445 32.2267 21.136 32.1052L17.4591 31.223C16.9512 31.101 16.6429 30.6075 16.7696 30.1205L18.2314 24.4438C18.866 22.0083 21.4385 20.528 23.9769 21.1366C24.4848 21.2586 24.7932 21.7521 24.6665 22.2392ZM37.1039 24.7266H38.0295C38.5409 24.7266 38.9551 25.1408 38.9545 25.6522V44.1644C38.9545 44.6757 38.5403 45.0899 38.0289 45.0899H37.1034C36.592 45.0899 36.1778 44.6757 36.1778 44.1644V30.2807H33.401C32.9105 30.2807 32.4396 30.0852 32.0925 29.7381L30.795 28.4405L29.6444 33.0435C29.6404 33.0595 29.633 33.0733 29.6257 33.087C29.6191 33.0993 29.6126 33.1115 29.6085 33.1251L32.317 35.8336C33.0164 36.533 33.4016 37.4626 33.4016 38.4512V43.2382C33.4016 44.2604 32.5727 45.0894 31.5505 45.0894C30.5283 45.0894 29.6993 44.2604 29.6993 43.2382V38.4512L24.6885 33.4404C24.4624 33.2143 24.2988 32.9336 24.2134 32.6255C24.1281 32.3174 24.1239 31.9925 24.2014 31.6824L25.7587 25.4509C26.1382 23.9341 27.4947 22.8755 29.0578 22.8755C29.966 22.8755 30.8204 23.229 31.462 23.8716L34.1681 26.5778H36.1784V25.6522C36.1784 25.1408 36.5926 24.7266 37.1039 24.7266ZM33.4016 18.2476C33.4016 19.7812 32.1585 21.0243 30.6249 21.0243C29.0913 21.0243 27.8482 19.7812 27.8482 18.2476C27.8482 16.714 29.0913 15.4709 30.6249 15.4709C32.1585 15.4709 33.4016 16.714 33.4016 18.2476Z" fill="#DE574B"/>
<path d="M25.5904 75.8175L25.2336 76.1678L25.2336 76.1678L25.5904 75.8175ZM29.942 77.2415L29.5811 76.8955L29.5811 76.8955L29.942 77.2415ZM28.471 78.7791L28.1089 79.1239L28.471 79.5041L28.8331 79.1239L28.471 78.7791ZM21.4241 42.7887L20.939 42.6674L20.9389 42.6677L21.4241 42.7887ZM22.7708 45.0338L22.8934 44.5491L22.8919 44.5487L22.7708 45.0338ZM23.4233 34.7929L23.7769 34.4393L23.1525 33.8149L22.9383 34.6716L23.4233 34.7929ZM26.4766 37.8461L26.9616 37.9674L27.0303 37.6928L26.8301 37.4926L26.4766 37.8461ZM25.0165 43.6871L25.5014 43.8089L25.5015 43.8084L25.0165 43.6871ZM22.2854 31.4435L22.7693 31.5693L22.7695 31.5687L22.2854 31.4435ZM24.6665 22.2392L24.1826 22.1133L24.1824 22.1139L24.6665 22.2392ZM21.136 32.1052L21.0193 32.5914L21.0198 32.5916L21.136 32.1052ZM17.4591 31.223L17.3423 31.7092L17.3425 31.7092L17.4591 31.223ZM16.7696 30.1205L17.2535 30.2463L17.2538 30.2451L16.7696 30.1205ZM18.2314 24.4438L17.7476 24.3177L17.7472 24.3191L18.2314 24.4438ZM23.9769 21.1366L24.0938 20.6504L24.0935 20.6503L23.9769 21.1366ZM38.9545 25.6522L38.4545 25.6517V25.6522H38.9545ZM36.1778 30.2807H36.6778V29.7807H36.1778V30.2807ZM30.795 28.4405L31.1485 28.087L30.5241 27.4625L30.3099 28.3193L30.795 28.4405ZM29.6444 33.0435L30.1294 33.1648L30.1294 33.1648L29.6444 33.0435ZM29.6257 33.087L29.1847 32.8514L29.1846 32.8514L29.6257 33.087ZM29.6085 33.1251L29.1296 32.9815L29.0438 33.2675L29.2549 33.4787L29.6085 33.1251ZM29.6993 38.4512H30.1993V38.2441L30.0529 38.0977L29.6993 38.4512ZM24.6885 33.4404L24.3349 33.7939L24.3349 33.7939L24.6885 33.4404ZM24.2134 32.6255L24.6953 32.492L24.6953 32.492L24.2134 32.6255ZM24.2014 31.6824L23.7163 31.5611L23.7163 31.5612L24.2014 31.6824ZM25.7587 25.4509L25.2736 25.3296L25.2736 25.3297L25.7587 25.4509ZM31.462 23.8716L31.1081 24.2249L31.1084 24.2252L31.462 23.8716ZM34.1681 26.5778L33.8146 26.9314L33.961 27.0778H34.1681V26.5778ZM36.1784 26.5778V27.0778H36.6784V26.5778H36.1784ZM0.691406 30.6988C0.691406 51.1993 15.8692 66.6289 25.2336 76.1678L25.9472 75.4672C16.5315 65.876 1.69141 50.7286 1.69141 30.6988H0.691406ZM29.4453 0.532227C19.5451 0.532227 12.3406 4.69754 7.62168 10.5651C2.91422 16.4185 0.691406 23.9493 0.691406 30.6988H1.69141C1.69141 24.1495 3.85282 16.847 8.40093 11.1918C12.9376 5.55079 19.86 1.53223 29.4453 1.53223V0.532227ZM57.2249 30.6988C57.2249 23.9622 55.2528 16.433 50.7898 10.5754C46.3135 4.70021 39.348 0.532227 29.4453 0.532227V1.53223C39.028 1.53223 45.7023 5.54812 49.9944 11.1815C54.2999 16.8325 56.2249 24.1365 56.2249 30.6988H57.2249ZM30.3029 77.5876C34.9491 72.7412 41.6725 65.7296 47.2326 57.5932C52.7877 49.464 57.2249 40.1509 57.2249 30.6988H56.2249C56.2249 39.853 51.9191 48.9627 46.4069 57.029C40.8998 65.088 34.2317 72.0446 29.5811 76.8955L30.3029 77.5876ZM28.8331 79.1239C29.2944 78.6395 29.7857 78.1271 30.3029 77.5876L29.5811 76.8955C29.0641 77.4348 28.5717 77.9484 28.1089 78.4343L28.8331 79.1239ZM25.2336 76.1678C26.2725 77.2259 27.2391 78.2106 28.1089 79.1239L28.8331 78.4343C27.957 77.5144 26.9847 76.524 25.9472 75.4672L25.2336 76.1678ZM20.9389 42.6677C20.6246 43.9278 21.3898 45.2043 22.6497 45.5189L22.8919 44.5487C22.1687 44.3681 21.7283 43.635 21.9092 42.9097L20.9389 42.6677ZM22.9383 34.6716L20.939 42.6674L21.9091 42.91L23.9084 34.9142L22.9383 34.6716ZM26.8301 37.4926L23.7769 34.4393L23.0698 35.1464L26.123 38.1997L26.8301 37.4926ZM25.5015 43.8084L26.9616 37.9674L25.9915 37.7249L24.5314 43.5659L25.5015 43.8084ZM23.222 45.5888C24.275 45.5888 25.2332 44.8768 25.5014 43.8089L24.5315 43.5653C24.3775 44.1785 23.8269 44.5888 23.222 44.5888V45.5888ZM22.6482 45.5186C22.8426 45.5677 23.0351 45.5888 23.222 45.5888V44.5888C23.1105 44.5888 23.0009 44.5763 22.8934 44.5491L22.6482 45.5186ZM22.7695 31.5687L25.1506 22.3644L24.1824 22.1139L21.8014 31.3182L22.7695 31.5687ZM21.0198 32.5916C21.7762 32.7723 22.5698 32.3364 22.7693 31.5693L21.8015 31.3176C21.7477 31.5247 21.5128 31.6812 21.2522 31.6189L21.0198 32.5916ZM17.3425 31.7092L21.0193 32.5914L21.2526 31.619L17.5758 30.7368L17.3425 31.7092ZM16.2857 29.9946C16.0842 30.7694 16.5796 31.5259 17.3423 31.7092L17.576 30.7369C17.3228 30.6761 17.2016 30.4457 17.2535 30.2463L16.2857 29.9946ZM17.7472 24.3191L16.2854 29.9958L17.2538 30.2451L18.7156 24.5685L17.7472 24.3191ZM24.0935 20.6503C21.3068 19.9822 18.455 21.6026 17.7476 24.3177L18.7153 24.5698C19.277 22.4141 21.5703 21.0737 23.8604 21.6228L24.0935 20.6503ZM25.1504 22.365C25.3519 21.5903 24.8564 20.8337 24.0938 20.6504L23.8601 21.6227C24.1133 21.6836 24.2345 21.9139 24.1826 22.1133L25.1504 22.365ZM38.0295 24.2266H37.1039V25.2266H38.0295V24.2266ZM39.4545 25.6528C39.4554 24.8647 38.8169 24.2266 38.0295 24.2266V25.2266C38.2649 25.2266 38.4548 25.417 38.4545 25.6517L39.4545 25.6528ZM39.4545 44.1644V25.6522H38.4545V44.1644H39.4545ZM38.0289 45.5899C38.8165 45.5899 39.4545 44.9519 39.4545 44.1644H38.4545C38.4545 44.3996 38.2642 44.5899 38.0289 44.5899V45.5899ZM37.1034 45.5899H38.0289V44.5899H37.1034V45.5899ZM35.6778 44.1644C35.6778 44.9519 36.3158 45.5899 37.1034 45.5899V44.5899C36.8681 44.5899 36.6778 44.3996 36.6778 44.1644H35.6778ZM35.6778 30.2807V44.1644H36.6778V30.2807H35.6778ZM33.401 30.7807H36.1778V29.7807H33.401V30.7807ZM31.739 30.0916C32.1796 30.5322 32.7775 30.7807 33.401 30.7807V29.7807C33.0435 29.7807 32.6997 29.6381 32.4461 29.3845L31.739 30.0916ZM30.4414 28.7941L31.739 30.0916L32.4461 29.3845L31.1485 28.087L30.4414 28.7941ZM30.1294 33.1648L31.28 28.5618L30.3099 28.3193L29.1593 32.9223L30.1294 33.1648ZM30.0666 33.3227C30.07 33.3164 30.1082 33.2499 30.1294 33.1648L29.1593 32.9223C29.1667 32.8926 29.1759 32.8706 29.1812 32.8589C29.1856 32.8492 29.1896 32.8422 29.1847 32.8514L30.0666 33.3227ZM30.0874 33.2687C30.0803 33.2925 30.0726 33.3099 30.0685 33.3185C30.0652 33.3256 30.0624 33.3306 30.0667 33.3226L29.1846 32.8514C29.1817 32.8569 29.1503 32.9123 29.1296 32.9815L30.0874 33.2687ZM32.6705 35.48L29.962 32.7716L29.2549 33.4787L31.9634 36.1871L32.6705 35.48ZM33.9016 38.4512C33.9016 37.3299 33.4636 36.2731 32.6705 35.48L31.9634 36.1871C32.5691 36.7928 32.9016 37.5953 32.9016 38.4512H33.9016ZM33.9016 43.2382V38.4512H32.9016V43.2382H33.9016ZM31.5505 45.5894C32.8488 45.5894 33.9016 44.5365 33.9016 43.2382H32.9016C32.9016 43.9842 32.2965 44.5894 31.5505 44.5894V45.5894ZM29.1993 43.2382C29.1993 44.5365 30.2521 45.5894 31.5505 45.5894V44.5894C30.8044 44.5894 30.1993 43.9842 30.1993 43.2382H29.1993ZM29.1993 38.4512V43.2382H30.1993V38.4512H29.1993ZM24.3349 33.7939L29.3458 38.8048L30.0529 38.0977L25.042 33.0868L24.3349 33.7939ZM23.7316 32.759C23.84 33.1503 24.0478 33.5068 24.3349 33.7939L25.0421 33.0869C24.8771 32.9218 24.7576 32.7169 24.6953 32.492L23.7316 32.759ZM23.7163 31.5612C23.6179 31.9551 23.6232 32.3678 23.7316 32.759L24.6953 32.492C24.633 32.2671 24.6299 32.0299 24.6865 31.8035L23.7163 31.5612ZM25.2736 25.3297L23.7163 31.5611L24.6865 31.8036L26.2438 25.5721L25.2736 25.3297ZM29.0578 22.3755C27.2653 22.3755 25.7088 23.5902 25.2736 25.3296L26.2437 25.5723C26.5675 24.2781 27.7241 23.3755 29.0578 23.3755V22.3755ZM31.8158 23.5184C31.0803 22.7815 30.0984 22.3755 29.0578 22.3755V23.3755C29.8336 23.3755 30.5606 23.6764 31.1081 24.2249L31.8158 23.5184ZM34.5217 26.2243L31.8155 23.5181L31.1084 24.2252L33.8146 26.9314L34.5217 26.2243ZM36.1784 26.0778H34.1681V27.0778H36.1784V26.0778ZM35.6784 25.6522V26.5778H36.6784V25.6522H35.6784ZM37.1039 24.2266C36.3164 24.2266 35.6784 24.8647 35.6784 25.6522H36.6784C36.6784 25.417 36.8687 25.2266 37.1039 25.2266V24.2266ZM30.6249 21.5243C32.4346 21.5243 33.9016 20.0573 33.9016 18.2476H32.9016C32.9016 19.505 31.8823 20.5243 30.6249 20.5243V21.5243ZM27.3482 18.2476C27.3482 20.0573 28.8152 21.5243 30.6249 21.5243V20.5243C29.3675 20.5243 28.3482 19.505 28.3482 18.2476H27.3482ZM30.6249 14.9709C28.8152 14.9709 27.3482 16.4379 27.3482 18.2476H28.3482C28.3482 16.9902 29.3675 15.9709 30.6249 15.9709V14.9709ZM33.9016 18.2476C33.9016 16.4379 32.4346 14.9709 30.6249 14.9709V15.9709C31.8823 15.9709 32.9016 16.9902 32.9016 18.2476H33.9016Z" fill="#FFFAF9"/>
</svg>
