<svg width="58" height="80" viewBox="0 0 58 80" fill="none" xmlns="http://www.w3.org/2000/svg">
<path fill-rule="evenodd" clip-rule="evenodd" d="M25.8658 75.8175C16.4757 66.2525 1.4668 50.964 1.4668 30.6988C1.4668 17.4 10.2352 1.03223 29.7207 1.03223C49.2061 1.03223 57.0003 17.4 57.0003 30.6988C57.0003 49.3051 39.5143 67.5443 30.2174 77.2416C29.7002 77.781 29.2084 78.2939 28.7464 78.7791C27.8735 77.8625 26.904 76.875 25.8658 75.8175ZM35.8125 16.0611C35.8125 17.6139 34.5502 18.8726 32.9931 18.8726C31.4359 18.8726 30.1737 17.6139 30.1737 16.0611C30.1737 14.5083 31.4359 13.2496 32.9931 13.2496C34.5502 13.2496 35.8125 14.5083 35.8125 16.0611ZM22.8251 33.8666L23.6944 31.8447C24.1602 32.8545 24.9085 33.7413 25.9258 34.3405L26.5525 34.7095L26.0362 35.9114C25.5939 36.9452 24.576 37.6153 23.4453 37.6153H18.8961C17.8582 37.6153 17.0165 36.7759 17.0165 35.741C17.0165 34.706 17.8582 33.8666 18.8961 33.8666H22.8251ZM36.9855 26.3693H39.5717C40.6095 26.3693 41.4512 27.2081 41.4512 28.2431C41.4512 29.278 40.6095 30.1174 39.5717 30.1174H36.4004C35.332 30.1174 34.3382 29.4995 33.8683 28.5424L32.6777 26.1157L30.8386 30.7008L34.4357 32.8176C35.537 33.4801 36.0539 34.7868 35.7067 36.0034L33.8483 41.9227C33.5963 42.724 32.855 43.2377 32.0556 43.2377C31.8694 43.2377 31.6803 43.2096 31.4929 43.151C30.5026 42.8417 29.9511 41.7904 30.2612 40.8028L31.8747 35.6642L26.8832 32.7256C25.2615 31.7709 24.5972 29.7484 25.3384 28.0217L27.5387 22.903L26.6753 22.647C26.2154 22.5381 25.6415 22.6617 25.191 23.0067L22.8597 24.7879C22.0362 25.4169 20.8574 25.2629 20.2248 24.4411C19.5922 23.6193 19.7484 22.4432 20.5725 21.8135L22.9026 20.0323C24.2577 18.9962 25.9886 18.6301 27.6509 19.0284L31.826 20.2666C33.3725 20.6597 34.7205 21.7538 35.4548 23.2503L36.9855 26.3693Z" fill="#DE574B"/>
<path d="M25.8658 75.8175L25.509 76.1678L25.509 76.1678L25.8658 75.8175ZM30.2174 77.2416L29.8565 76.8955L29.8565 76.8955L30.2174 77.2416ZM28.7464 78.7791L28.3843 79.1239L28.7464 79.5041L29.1085 79.1239L28.7464 78.7791ZM23.6944 31.8447L24.1484 31.6353L23.6783 30.6162L23.235 31.6472L23.6944 31.8447ZM22.8251 33.8666V34.3666H23.1543L23.2844 34.0641L22.8251 33.8666ZM25.9258 34.3405L25.672 34.7713L25.6721 34.7714L25.9258 34.3405ZM26.5525 34.7095L27.0119 34.9068L27.1858 34.5021L26.8062 34.2786L26.5525 34.7095ZM26.0362 35.9114L25.5768 35.7141L25.5765 35.7147L26.0362 35.9114ZM36.9855 26.3693L36.5366 26.5896L36.6739 26.8693H36.9855V26.3693ZM33.8683 28.5424L33.4194 28.7626L33.4194 28.7627L33.8683 28.5424ZM32.6777 26.1157L33.1265 25.8955L32.6318 24.887L32.2136 25.9296L32.6777 26.1157ZM30.8386 30.7008L30.3745 30.5146L30.2145 30.9137L30.585 31.1317L30.8386 30.7008ZM34.4357 32.8176L34.6934 32.3891L34.6893 32.3867L34.4357 32.8176ZM35.7067 36.0034L36.1839 36.1532L36.1875 36.1406L35.7067 36.0034ZM33.8483 41.9227L34.3253 42.0727L34.3253 42.0725L33.8483 41.9227ZM31.4929 43.151L31.6421 42.6738L31.642 42.6737L31.4929 43.151ZM30.2612 40.8028L30.7382 40.9526L30.7382 40.9526L30.2612 40.8028ZM31.8747 35.6642L32.3518 35.814L32.4708 35.4349L32.1284 35.2334L31.8747 35.6642ZM26.8832 32.7256L27.1369 32.2948L27.1369 32.2948L26.8832 32.7256ZM25.3384 28.0217L24.8791 27.8242L24.879 27.8244L25.3384 28.0217ZM27.5387 22.903L27.9981 23.1004L28.2203 22.5835L27.6808 22.4236L27.5387 22.903ZM26.6753 22.647L26.8174 22.1676L26.8041 22.1637L26.7905 22.1605L26.6753 22.647ZM25.191 23.0067L25.4946 23.404L25.495 23.4036L25.191 23.0067ZM22.8597 24.7879L23.1632 25.1852L23.1633 25.1852L22.8597 24.7879ZM20.2248 24.4411L20.621 24.1361L20.621 24.1361L20.2248 24.4411ZM20.5725 21.8135L20.876 22.2108L20.8761 22.2108L20.5725 21.8135ZM22.9026 20.0323L23.2062 20.4296L23.2063 20.4295L22.9026 20.0323ZM27.6509 19.0284L27.7931 18.549L27.7803 18.5453L27.7674 18.5422L27.6509 19.0284ZM31.826 20.2666L31.6838 20.746L31.6933 20.7488L31.7028 20.7512L31.826 20.2666ZM35.4548 23.2503L35.0059 23.4706L35.0059 23.4706L35.4548 23.2503ZM0.966797 30.6988C0.966797 51.1993 16.1446 66.6289 25.509 76.1678L26.2226 75.4672C16.8069 65.876 1.9668 50.7286 1.9668 30.6988H0.966797ZM29.7207 0.532227C19.8205 0.532227 12.616 4.69754 7.89707 10.5651C3.18961 16.4185 0.966797 23.9493 0.966797 30.6988H1.9668C1.9668 24.1495 4.12821 16.847 8.67633 11.1918C13.213 5.55079 20.1354 1.53223 29.7207 1.53223V0.532227ZM57.5003 30.6988C57.5003 23.9622 55.5282 16.433 51.0652 10.5754C46.5889 4.70021 39.6234 0.532227 29.7207 0.532227V1.53223C39.3034 1.53223 45.9777 5.54812 50.2698 11.1815C54.5753 16.8325 56.5003 24.1365 56.5003 30.6988H57.5003ZM30.5783 77.5876C35.2245 72.7412 41.9479 65.7296 47.508 57.5932C53.0631 49.464 57.5003 40.1509 57.5003 30.6988H56.5003C56.5003 39.853 52.1944 48.9627 46.6823 57.029C41.1752 65.088 34.5071 72.0446 29.8565 76.8955L30.5783 77.5876ZM29.1085 79.1239C29.5698 78.6395 30.061 78.1271 30.5783 77.5876L29.8565 76.8955C29.3394 77.4348 28.847 77.9484 28.3843 78.4343L29.1085 79.1239ZM25.509 76.1678C26.5479 77.2259 27.5145 78.2106 28.3843 79.1239L29.1085 78.4343C28.2324 77.5144 27.2601 76.524 26.2226 75.4672L25.509 76.1678ZM32.9931 19.3726C34.825 19.3726 36.3125 17.8913 36.3125 16.0611H35.3125C35.3125 17.3364 34.2754 18.3726 32.9931 18.3726V19.3726ZM29.6737 16.0611C29.6737 17.8913 31.1611 19.3726 32.9931 19.3726V18.3726C31.7108 18.3726 30.6737 17.3364 30.6737 16.0611H29.6737ZM32.9931 12.7496C31.1611 12.7496 29.6737 14.2309 29.6737 16.0611H30.6737C30.6737 14.7858 31.7108 13.7496 32.9931 13.7496V12.7496ZM36.3125 16.0611C36.3125 14.2309 34.825 12.7496 32.9931 12.7496V13.7496C34.2754 13.7496 35.3125 14.7858 35.3125 16.0611H36.3125ZM23.235 31.6472L22.3657 33.6691L23.2844 34.0641L24.1537 32.0422L23.235 31.6472ZM26.1795 33.9097C25.2577 33.3667 24.5755 32.5611 24.1484 31.6353L23.2403 32.0541C23.7448 33.1479 24.5592 34.1159 25.672 34.7713L26.1795 33.9097ZM26.8062 34.2786L26.1795 33.9096L25.6721 34.7714L26.2988 35.1404L26.8062 34.2786ZM26.4956 36.1088L27.0119 34.9068L26.0931 34.5121L25.5768 35.7141L26.4956 36.1088ZM23.4453 38.1153C24.775 38.1153 25.9745 37.3269 26.4959 36.1081L25.5765 35.7147C25.2134 36.5635 24.377 37.1153 23.4453 37.1153V38.1153ZM18.8961 38.1153H23.4453V37.1153H18.8961V38.1153ZM16.5165 35.741C16.5165 37.0534 17.5834 38.1153 18.8961 38.1153V37.1153C18.133 37.1153 17.5165 36.4985 17.5165 35.741H16.5165ZM18.8961 33.3666C17.5834 33.3666 16.5165 34.4285 16.5165 35.741H17.5165C17.5165 34.9834 18.133 34.3666 18.8961 34.3666V33.3666ZM22.8251 33.3666H18.8961V34.3666H22.8251V33.3666ZM39.5717 25.8693H36.9855V26.8693H39.5717V25.8693ZM41.9512 28.2431C41.9512 26.9304 40.8842 25.8693 39.5717 25.8693V26.8693C40.3349 26.8693 40.9512 27.4858 40.9512 28.2431H41.9512ZM39.5717 30.6174C40.8844 30.6174 41.9512 29.5555 41.9512 28.2431H40.9512C40.9512 29.0006 40.3347 29.6174 39.5717 29.6174V30.6174ZM36.4004 30.6174H39.5717V29.6174H36.4004V30.6174ZM33.4194 28.7627C33.9737 29.8915 35.1419 30.6174 36.4004 30.6174V29.6174C35.5221 29.6174 34.7027 29.1074 34.3171 28.322L33.4194 28.7627ZM32.2288 26.3359L33.4194 28.7626L34.3171 28.3221L33.1265 25.8955L32.2288 26.3359ZM31.3027 30.8869L33.1417 26.3018L32.2136 25.9296L30.3745 30.5146L31.3027 30.8869ZM34.6893 32.3867L31.0922 30.2699L30.585 31.1317L34.1821 33.2485L34.6893 32.3867ZM36.1875 36.1406C36.5974 34.7042 35.9861 33.1667 34.6934 32.3891L34.1779 33.2461C35.0879 33.7934 35.5103 34.8694 35.2259 35.8662L36.1875 36.1406ZM34.3253 42.0725L36.1838 36.1531L35.2297 35.8536L33.3712 41.773L34.3253 42.0725ZM32.0556 43.7377C33.0668 43.7377 34.0058 43.0885 34.3253 42.0727L33.3713 41.7727C33.1868 42.3595 32.6433 42.7377 32.0556 42.7377V43.7377ZM31.3437 43.6282C31.5794 43.7019 31.8188 43.7377 32.0556 43.7377V42.7377C31.92 42.7377 31.7812 42.7173 31.6421 42.6738L31.3437 43.6282ZM29.7842 40.653C29.3909 41.9054 30.0908 43.2369 31.3439 43.6283L31.642 42.6737C30.9145 42.4465 30.5113 41.6753 30.7382 40.9526L29.7842 40.653ZM31.3977 35.5144L29.7842 40.653L30.7382 40.9526L32.3518 35.814L31.3977 35.5144ZM26.6296 33.1565L31.6211 36.0951L32.1284 35.2334L27.1369 32.2948L26.6296 33.1565ZM24.879 27.8244C24.0382 29.783 24.7914 32.0744 26.6296 33.1565L27.1369 32.2948C25.7315 31.4674 25.1562 29.7137 25.7979 28.2189L24.879 27.8244ZM27.0794 22.7055L24.8791 27.8242L25.7978 28.2191L27.9981 23.1004L27.0794 22.7055ZM26.5332 23.1264L27.3966 23.3824L27.6808 22.4236L26.8174 22.1676L26.5332 23.1264ZM25.495 23.4036C25.8383 23.1407 26.2604 23.0626 26.56 23.1336L26.7905 22.1605C26.1704 22.0136 25.4447 22.1826 24.887 22.6097L25.495 23.4036ZM23.1633 25.1852L25.4946 23.404L24.8874 22.6094L22.5561 24.3906L23.1633 25.1852ZM19.8285 24.7461C20.6295 25.7866 22.1213 25.9811 23.1632 25.1852L22.5562 24.3905C21.9511 24.8528 21.0852 24.7392 20.621 24.1361L19.8285 24.7461ZM20.2689 21.4162C19.2253 22.2136 19.0267 23.7045 19.8285 24.7461L20.621 24.1361C20.1576 23.5341 20.2715 22.6727 20.876 22.2108L20.2689 21.4162ZM22.5989 19.6351L20.2688 21.4163L20.8761 22.2108L23.2062 20.4296L22.5989 19.6351ZM27.7674 18.5422C25.9591 18.1089 24.0737 18.5074 22.5989 19.6351L23.2063 20.4295C24.4416 19.485 26.0182 19.1513 27.5344 19.5146L27.7674 18.5422ZM31.9681 19.7873L27.7931 18.549L27.5087 19.5078L31.6838 20.746L31.9681 19.7873ZM35.9036 23.0301C35.1064 21.405 33.6411 20.212 31.9491 19.782L31.7028 20.7512C33.104 21.1073 34.3347 22.1025 35.0059 23.4706L35.9036 23.0301ZM37.4343 26.149L35.9036 23.03L35.0059 23.4706L36.5366 26.5896L37.4343 26.149Z" fill="#FDC7C2"/>
</svg>
