<svg width="57" height="80" viewBox="0 0 57 80" fill="none" xmlns="http://www.w3.org/2000/svg">
<path fill-rule="evenodd" clip-rule="evenodd" d="M25.0377 76.0382C15.6476 66.4732 0.638672 51.1847 0.638672 30.9195C0.638672 17.6207 9.40712 1.25293 28.8925 1.25293C48.378 1.25293 56.1721 17.6207 56.1721 30.9195C56.1721 49.5258 38.6861 67.765 29.3893 77.4623C28.8721 78.0017 28.3803 78.5147 27.9183 78.9998C27.0454 78.0832 26.0759 77.0957 25.0377 76.0382ZM35.1776 31.2409L40.2613 37.5223C40.6431 37.9936 40.7297 38.6391 40.4879 39.2063C40.2492 39.765 39.7243 40.126 39.1509 40.126H30.442V41.8232L32.3695 45.1828C32.708 45.9214 32.2155 46.7905 31.4589 46.7905H25.3526C24.596 46.7905 24.1035 45.9214 24.442 45.1828L26.3695 41.8232V40.126H17.6606C17.0873 40.126 16.5623 39.765 16.3237 39.2063C16.0818 38.6391 16.1684 37.9936 16.5502 37.5223L21.6339 31.2409H19.6848C19.1108 31.2409 18.6043 30.8939 18.3625 30.3351C18.1213 29.7763 18.2008 29.137 18.5706 28.6664L23.5429 22.3559H21.7045C21.1254 22.3559 20.603 21.9845 20.3765 21.4112C20.1531 20.8468 20.2581 20.1902 20.6463 19.7397L27.6638 11.5848C28.0481 11.1371 28.764 11.1371 29.1477 11.5848L36.1646 19.7397C36.5528 20.1902 36.6584 20.8468 36.4344 21.4112C36.2079 21.9845 35.6861 22.3559 35.107 22.3559H33.2686L38.2403 28.665C38.6113 29.1363 38.6909 29.7763 38.449 30.3344C38.2072 30.8939 37.7001 31.2409 37.1267 31.2409H35.1776Z" fill="#7ECA5A"/>
<path d="M25.0377 76.0382L25.3945 75.6879L25.3945 75.6879L25.0377 76.0382ZM29.3893 77.4623L29.0283 77.1162L29.0283 77.1162L29.3893 77.4623ZM27.9183 78.9998L27.5562 79.3446L27.9183 79.7248L28.2803 79.3446L27.9183 78.9998ZM40.2613 37.5223L39.8727 37.8368L39.8728 37.837L40.2613 37.5223ZM35.1776 31.2409V30.7409H34.1297L34.789 31.5555L35.1776 31.2409ZM40.4879 39.2063L40.9477 39.4026L40.9478 39.4024L40.4879 39.2063ZM30.442 40.126V39.626H29.942V40.126H30.442ZM30.442 41.8232H29.942V41.9564L30.0083 42.072L30.442 41.8232ZM32.3695 45.1828L32.824 44.9745L32.8145 44.9538L32.8032 44.934L32.3695 45.1828ZM24.442 45.1828L24.0083 44.934L23.997 44.9538L23.9875 44.9745L24.442 45.1828ZM26.3695 41.8232L26.8032 42.072L26.8695 41.9564V41.8232H26.3695ZM26.3695 40.126H26.8695V39.626H26.3695V40.126ZM16.3237 39.2063L15.8637 39.4024L15.8638 39.4026L16.3237 39.2063ZM16.5502 37.5223L16.9387 37.837L16.9388 37.8368L16.5502 37.5223ZM21.6339 31.2409L22.0225 31.5555L22.6818 30.7409H21.6339V31.2409ZM18.3625 30.3351L17.9034 30.5332L17.9036 30.5337L18.3625 30.3351ZM18.5706 28.6664L18.1778 28.3569L18.1774 28.3575L18.5706 28.6664ZM23.5429 22.3559L23.9356 22.6653L24.5734 21.8559H23.5429V22.3559ZM20.3765 21.4112L20.8415 21.2274L20.8414 21.2272L20.3765 21.4112ZM20.6463 19.7397L21.0251 20.066L21.0253 20.0658L20.6463 19.7397ZM27.6638 11.5848L28.0428 11.911L28.0432 11.9105L27.6638 11.5848ZM29.1477 11.5848L28.7681 11.9102L28.7687 11.911L29.1477 11.5848ZM36.1646 19.7397L35.7856 20.0658L35.7858 20.066L36.1646 19.7397ZM36.4344 21.4112L35.9697 21.2267L35.9694 21.2274L36.4344 21.4112ZM33.2686 22.3559V21.8559H32.238L32.8759 22.6654L33.2686 22.3559ZM38.2403 28.665L38.6332 28.3557L38.633 28.3555L38.2403 28.665ZM38.449 30.3344L37.9903 30.1356L37.9901 30.136L38.449 30.3344ZM0.138672 30.9195C0.138672 51.42 15.3165 66.8496 24.6809 76.3885L25.3945 75.6879C15.9787 66.0967 1.13867 50.9494 1.13867 30.9195H0.138672ZM28.8925 0.75293C18.9924 0.75293 11.7878 4.91824 7.06894 10.7858C2.36148 16.6392 0.138672 24.17 0.138672 30.9195H1.13867C1.13867 24.3702 3.30008 17.0677 7.8482 11.4125C12.3849 5.7715 19.3072 1.75293 28.8925 1.75293V0.75293ZM56.6721 30.9195C56.6721 24.1829 54.7 16.6537 50.2371 10.7961C45.7607 4.92092 38.7953 0.75293 28.8925 0.75293V1.75293C38.4752 1.75293 45.1496 5.76882 49.4417 11.4022C53.7472 17.0532 55.6721 24.3572 55.6721 30.9195H56.6721ZM29.7502 77.8083C34.3964 72.9619 41.1198 65.9503 46.6798 57.8139C52.235 49.6847 56.6721 40.3716 56.6721 30.9195H55.6721C55.6721 40.0737 51.3663 49.1834 45.8542 57.2497C40.347 65.3087 33.679 72.2653 29.0283 77.1162L29.7502 77.8083ZM28.2803 79.3446C28.7417 78.8602 29.2329 78.3478 29.7502 77.8083L29.0283 77.1162C28.5113 77.6555 28.0189 78.1691 27.5562 78.655L28.2803 79.3446ZM24.6809 76.3885C25.7197 77.4466 26.6864 78.4313 27.5562 79.3446L28.2803 78.655C27.4043 77.7351 26.432 76.7447 25.3945 75.6879L24.6809 76.3885ZM40.65 37.2077L35.5663 30.9264L34.789 31.5555L39.8727 37.8368L40.65 37.2077ZM40.9478 39.4024C41.2606 38.6687 41.1508 37.826 40.6499 37.2075L39.8728 37.837C40.1354 38.1612 40.1987 38.6096 40.0279 39.0101L40.9478 39.4024ZM39.1509 40.626C39.9394 40.626 40.6364 40.1315 40.9477 39.4026L40.028 39.0099C39.862 39.3986 39.5091 39.626 39.1509 39.626V40.626ZM30.442 40.626H39.1509V39.626H30.442V40.626ZM30.942 41.8232V40.126H29.942V41.8232H30.942ZM32.8032 44.934L30.8757 41.5744L30.0083 42.072L31.9358 45.4317L32.8032 44.934ZM31.4589 47.2905C32.6466 47.2905 33.2856 45.9814 32.824 44.9745L31.915 45.3912C32.1305 45.8614 31.7844 46.2905 31.4589 46.2905V47.2905ZM25.3526 47.2905H31.4589V46.2905H25.3526V47.2905ZM23.9875 44.9745C23.526 45.9814 24.165 47.2905 25.3526 47.2905V46.2905C25.0271 46.2905 24.681 45.8614 24.8966 45.3912L23.9875 44.9745ZM25.9358 41.5744L24.0083 44.934L24.8757 45.4317L26.8032 42.072L25.9358 41.5744ZM25.8695 40.126V41.8232H26.8695V40.126H25.8695ZM17.6606 40.626H26.3695V39.626H17.6606V40.626ZM15.8638 39.4026C16.1751 40.1315 16.8721 40.626 17.6606 40.626V39.626C17.3024 39.626 16.9495 39.3986 16.7835 39.0099L15.8638 39.4026ZM16.1617 37.2075C15.6607 37.826 15.5509 38.6687 15.8637 39.4024L16.7836 39.0101C16.6128 38.6096 16.6761 38.1612 16.9387 37.837L16.1617 37.2075ZM21.2452 30.9264L16.1615 37.2077L16.9388 37.8368L22.0225 31.5555L21.2452 30.9264ZM19.6848 31.7409H21.6339V30.7409H19.6848V31.7409ZM17.9036 30.5337C18.2183 31.261 18.8961 31.7409 19.6848 31.7409V30.7409C19.3255 30.7409 18.9902 30.5268 18.8213 30.1365L17.9036 30.5337ZM18.1774 28.3575C17.6919 28.9754 17.5912 29.8099 17.9034 30.5332L18.8215 30.137C18.6514 29.7427 18.7098 29.2985 18.9637 28.9752L18.1774 28.3575ZM23.1501 22.0464L18.1778 28.3569L18.9633 28.9758L23.9356 22.6653L23.1501 22.0464ZM21.7045 22.8559H23.5429V21.8559H21.7045V22.8559ZM19.9115 21.5949C20.2071 22.3432 20.9036 22.8559 21.7045 22.8559V21.8559C21.3473 21.8559 20.9989 21.6259 20.8415 21.2274L19.9115 21.5949ZM20.2675 19.4133C19.7541 20.0091 19.622 20.8634 19.9116 21.5952L20.8414 21.2272C20.6843 20.8302 20.7621 20.3712 21.0251 20.066L20.2675 19.4133ZM27.2848 11.2587L20.2673 19.4135L21.0253 20.0658L28.0428 11.911L27.2848 11.2587ZM29.5274 11.2595C28.944 10.5787 27.8681 10.5792 27.2844 11.2592L28.0432 11.9105C28.2282 11.695 28.5841 11.6955 28.7681 11.9102L29.5274 11.2595ZM36.5436 19.4135L29.5267 11.2587L28.7687 11.911L35.7856 20.0658L36.5436 19.4135ZM36.8991 21.5956C37.1898 20.8632 37.0565 20.0088 36.5434 19.4133L35.7858 20.066C36.049 20.3715 36.127 20.8304 35.9697 21.2267L36.8991 21.5956ZM35.107 22.8559C35.9082 22.8559 36.6039 22.3429 36.8994 21.5949L35.9694 21.2274C35.8119 21.6261 35.464 21.8559 35.107 21.8559V22.8559ZM33.2686 22.8559H35.107V21.8559H33.2686V22.8559ZM38.633 28.3555L33.6614 22.0464L32.8759 22.6654L37.8476 28.9744L38.633 28.3555ZM38.9078 30.5332C39.2212 29.8099 39.1201 28.9743 38.6332 28.3557L37.8474 28.9742C38.1025 29.2982 38.1605 29.7427 37.9903 30.1356L38.9078 30.5332ZM37.1267 31.7409C37.9147 31.7409 38.5933 31.261 38.908 30.5328L37.9901 30.136C37.8212 30.5268 37.4854 30.7409 37.1267 30.7409V31.7409ZM35.1776 31.7409H37.1267V30.7409H35.1776V31.7409Z" fill="#E2FFD5"/>
</svg>
