<svg width="58" height="80" viewBox="0 0 58 80" fill="none" xmlns="http://www.w3.org/2000/svg">
<path fill-rule="evenodd" clip-rule="evenodd" d="M25.399 76.0382C16.0089 66.4732 1 51.1847 1 30.9195C1 17.6207 9.76844 1.25293 29.2539 1.25293C48.7393 1.25293 56.5335 17.6207 56.5335 30.9195C56.5335 49.5258 39.0475 67.765 29.7506 77.4623C29.2334 78.0017 28.7416 78.5147 28.2796 78.9998C27.4067 78.0832 26.4372 77.0957 25.399 76.0382ZM32.3514 28.9453C36.6075 24.7544 42.3289 24.4255 43.8968 24.4184C44.1349 24.4173 44.3174 24.6039 44.3152 24.8449C44.3028 26.3677 43.9303 31.7242 39.5225 35.715C35.0357 40.1283 30.5937 40.1269 28.8247 40.1263C28.8047 40.1263 28.7851 40.1263 28.7659 40.1263C28.7468 40.1263 28.7274 40.1263 28.7077 40.1263C26.939 40.1269 22.4955 40.1283 18.0093 35.715C13.602 31.7248 13.2289 26.3677 13.2165 24.8449C13.2144 24.6039 13.3968 24.4173 13.6349 24.4184C15.2028 24.4255 20.9242 24.7544 25.1803 28.9453C26.9685 30.5614 28.0613 32.3978 28.7659 34.1191C29.4704 32.3978 30.5632 30.5614 32.3514 28.9453ZM31.1452 27.6953C30.2549 28.4992 29.4569 29.4226 28.7648 30.4507C28.0696 29.4192 27.253 28.4767 26.333 27.644C25.3223 26.6486 24.2355 25.861 23.1357 25.2229C24.0249 21.381 25.9297 17.9728 28.3588 15.838C28.5812 15.6428 28.9543 15.6428 29.1762 15.838C31.6063 17.9744 33.5111 21.3859 34.3987 25.2311C33.2822 25.879 32.1759 26.6803 31.1452 27.6953Z" fill="#C580D0"/>
<path d="M25.399 76.0382L25.7558 75.6879L25.7558 75.6879L25.399 76.0382ZM29.7506 77.4623L29.3897 77.1162L29.3897 77.1162L29.7506 77.4623ZM28.2796 78.9998L27.9175 79.3446L28.2796 79.7248L28.6417 79.3446L28.2796 78.9998ZM43.8968 24.4184L43.8991 24.9184L43.8991 24.9184L43.8968 24.4184ZM32.3514 28.9453L32.6866 29.3163L32.6946 29.3091L32.7022 29.3016L32.3514 28.9453ZM44.3152 24.8449L43.8152 24.8405L43.8152 24.8409L44.3152 24.8449ZM39.5225 35.715L39.1869 35.3443L39.1792 35.3513L39.1718 35.3585L39.5225 35.715ZM28.8247 40.1263L28.8245 40.6263L28.8245 40.6263L28.8247 40.1263ZM28.7077 40.1263L28.7078 40.6263L28.7078 40.6263L28.7077 40.1263ZM18.0093 35.715L18.3599 35.3586L18.3525 35.3513L18.3449 35.3443L18.0093 35.715ZM13.2165 24.8449L13.7165 24.8409L13.7165 24.8405L13.2165 24.8449ZM13.6349 24.4184L13.6326 24.9184L13.6327 24.9184L13.6349 24.4184ZM25.1803 28.9453L24.8295 29.3016L24.8371 29.3091L24.8451 29.3163L25.1803 28.9453ZM28.7659 34.1191L28.3031 34.3085L28.7659 35.439L29.2286 34.3085L28.7659 34.1191ZM28.7648 30.4507L28.3502 30.7301L28.765 31.3457L29.1795 30.7299L28.7648 30.4507ZM31.1452 27.6953L31.4803 28.0664L31.4884 28.0591L31.4961 28.0515L31.1452 27.6953ZM26.333 27.644L25.9822 28.0002L25.9897 28.0076L25.9975 28.0147L26.333 27.644ZM23.1357 25.2229L22.6486 25.1102L22.5653 25.47L22.8848 25.6554L23.1357 25.2229ZM28.3588 15.838L28.0289 15.4623L28.0287 15.4624L28.3588 15.838ZM29.1762 15.838L28.8459 16.2134L28.8461 16.2135L29.1762 15.838ZM34.3987 25.2311L34.6497 25.6635L34.9689 25.4783L34.8859 25.1186L34.3987 25.2311ZM0.5 30.9195C0.5 51.42 15.6778 66.8496 25.0422 76.3885L25.7558 75.6879C16.3401 66.0967 1.5 50.9494 1.5 30.9195H0.5ZM29.2539 0.75293C19.3537 0.75293 12.1492 4.91824 7.43027 10.7858C2.72281 16.6392 0.5 24.17 0.5 30.9195H1.5C1.5 24.3702 3.66141 17.0677 8.20953 11.4125C12.7462 5.7715 19.6686 1.75293 29.2539 1.75293V0.75293ZM57.0335 30.9195C57.0335 24.1829 55.0614 16.6537 50.5984 10.7961C46.1221 4.92092 39.1566 0.75293 29.2539 0.75293V1.75293C38.8366 1.75293 45.5109 5.76882 49.803 11.4022C54.1085 17.0532 56.0335 24.3572 56.0335 30.9195H57.0335ZM30.1115 77.8083C34.7577 72.9619 41.4811 65.9503 47.0412 57.8139C52.5963 49.6847 57.0335 40.3716 57.0335 30.9195H56.0335C56.0335 40.0737 51.7276 49.1834 46.2155 57.2497C40.7084 65.3087 34.0403 72.2653 29.3897 77.1162L30.1115 77.8083ZM28.6417 79.3446C29.103 78.8602 29.5942 78.3478 30.1115 77.8083L29.3897 77.1162C28.8726 77.6555 28.3803 78.1691 27.9175 78.655L28.6417 79.3446ZM25.0422 76.3885C26.0811 77.4466 27.0477 78.4313 27.9175 79.3446L28.6417 78.655C27.7656 77.7351 26.7933 76.7447 25.7558 75.6879L25.0422 76.3885ZM43.8945 23.9184C42.2922 23.9257 36.4009 24.2561 32.0006 28.5891L32.7022 29.3016C36.8141 25.2527 42.3656 24.9254 43.8991 24.9184L43.8945 23.9184ZM44.8152 24.8494C44.8198 24.337 44.4188 23.916 43.8945 23.9184L43.8991 24.9184C43.883 24.9185 43.8585 24.9108 43.839 24.8909C43.8199 24.8713 43.8152 24.8501 43.8152 24.8405L44.8152 24.8494ZM39.858 36.0856C44.4227 31.9529 44.8024 26.4186 44.8152 24.849L43.8152 24.8409C43.8032 26.3169 43.4379 31.4955 39.1869 35.3443L39.858 36.0856ZM28.8245 40.6263C30.6396 40.6269 35.2458 40.623 39.8731 36.0714L39.1718 35.3585C34.8255 39.6337 30.5478 39.6269 28.8248 39.6263L28.8245 40.6263ZM28.7659 40.6263C28.785 40.6263 28.8045 40.6263 28.8245 40.6263L28.8249 39.6263C28.8049 39.6263 28.7852 39.6263 28.7659 39.6263V40.6263ZM28.7078 40.6263C28.7276 40.6263 28.7469 40.6263 28.7659 40.6263V39.6263C28.7467 39.6263 28.7272 39.6263 28.7075 39.6263L28.7078 40.6263ZM17.6586 36.0714C22.2854 40.6229 26.8931 40.6269 28.7078 40.6263L28.7075 39.6263C26.9848 39.6268 22.7057 39.6336 18.3599 35.3586L17.6586 36.0714ZM12.7165 24.849C12.7293 26.4186 13.1096 31.9535 17.6737 36.0856L18.3449 35.3443C14.0944 31.4961 13.7285 26.3169 13.7165 24.8409L12.7165 24.849ZM13.6372 23.9184C13.113 23.916 12.7119 24.337 12.7165 24.8494L13.7165 24.8405C13.7166 24.8501 13.7118 24.8713 13.6927 24.8909C13.6732 24.9108 13.6487 24.9185 13.6326 24.9184L13.6372 23.9184ZM25.5312 28.5891C21.1308 24.2561 15.2395 23.9257 13.6372 23.9184L13.6327 24.9184C15.1662 24.9254 20.7176 25.2527 24.8295 29.3016L25.5312 28.5891ZM29.2286 33.9297C28.5021 32.1549 27.3707 30.251 25.5156 28.5744L24.8451 29.3163C26.5663 30.8718 27.6204 32.6407 28.3031 34.3085L29.2286 33.9297ZM32.0161 28.5744C30.161 30.251 29.0296 32.1549 28.3031 33.9297L29.2286 34.3085C29.9113 32.6407 30.9654 30.8718 32.6866 29.3163L32.0161 28.5744ZM29.1795 30.7299C29.8497 29.7345 30.6212 28.8422 31.4803 28.0664L30.8101 27.3242C29.8887 28.1562 29.0642 29.1107 28.35 30.1714L29.1795 30.7299ZM25.9975 28.0147C26.8875 28.8202 27.6775 29.732 28.3502 30.7301L29.1794 30.1712C28.4617 29.1063 27.6186 28.1332 26.6686 27.2733L25.9975 28.0147ZM22.8848 25.6554C23.9536 26.2755 25.0056 27.0384 25.9822 28.0002L26.6839 27.2877C25.6391 26.2588 24.5174 25.4466 23.3866 24.7904L22.8848 25.6554ZM28.0287 15.4624C25.5059 17.6796 23.5564 21.1881 22.6486 25.1102L23.6228 25.3357C24.4935 21.574 26.3535 18.266 28.6888 16.2136L28.0287 15.4624ZM29.5065 15.4626C29.0955 15.101 28.4398 15.1016 28.0289 15.4623L28.6886 16.2138C28.6964 16.2069 28.723 16.1916 28.7677 16.1916C28.8124 16.1916 28.8385 16.2069 28.8459 16.2134L29.5065 15.4626ZM34.8859 25.1186C33.9798 21.1932 32.0302 17.6813 29.5063 15.4625L28.8461 16.2135C31.1824 18.2675 33.0425 21.5787 33.9115 25.3436L34.8859 25.1186ZM31.4961 28.0515C32.4927 27.0701 33.5641 26.2935 34.6497 25.6635L34.1478 24.7986C33.0002 25.4646 31.8592 26.2904 30.7944 27.339L31.4961 28.0515Z" fill="#F9D1FF"/>
</svg>
