<svg width="57" height="80" viewBox="0 0 57 80" fill="none" xmlns="http://www.w3.org/2000/svg">
<path fill-rule="evenodd" clip-rule="evenodd" d="M24.9518 75.8175C15.5617 66.2525 0.552734 50.964 0.552734 30.6988C0.552734 17.4 9.32118 1.03223 28.8066 1.03223C48.292 1.03223 56.0862 17.4 56.0862 30.6988C56.0862 49.3051 38.6002 67.5443 29.3033 77.2416C28.7862 77.781 28.2944 78.2939 27.8323 78.7791C26.9594 77.8625 25.9899 76.875 24.9518 75.8175ZM38.7464 36.6658C39.5082 37.3653 40.5014 37.8223 41.538 37.9577C41.9286 38.0085 42.2082 38.4259 42.2034 38.8773V40.6599C42.2034 41.1733 41.837 41.6077 41.3982 41.5626C40.0386 41.4215 38.7079 40.9082 37.5845 40.1071C34.9327 42.0308 31.0514 42.059 28.3273 40.1071C25.6755 42.0308 21.7943 42.059 19.0701 40.1071C17.9467 40.9251 16.6305 41.4272 15.2419 41.5682C14.8032 41.6134 14.4367 41.179 14.4367 40.6656V38.849C14.4367 38.4034 14.7116 38.0085 15.0925 37.9633C16.1387 37.8336 17.1271 37.3879 17.8744 36.6996C18.5398 36.0847 19.4944 35.955 20.1453 36.5868C21.9919 38.3752 25.3139 38.3808 27.1461 36.6827C27.8066 36.0678 28.7468 35.9493 29.3977 36.5812C31.2539 38.3808 34.5952 38.3808 36.4225 36.6658C37.0975 36.0283 38.0666 36.0396 38.7464 36.6658ZM38.7464 28.5421C39.5082 29.2416 40.5014 29.6986 41.538 29.834C41.9286 29.8848 42.2082 30.3022 42.2034 30.7535V32.5362C42.2034 33.0496 41.837 33.484 41.3982 33.4389C40.0386 33.2978 38.7079 32.7845 37.5845 31.9834C34.9327 33.9071 31.0514 33.9353 28.3273 31.9834C25.6755 33.9071 21.7943 33.9353 19.0701 31.9834C17.9467 32.8014 16.6305 33.3035 15.2419 33.4445C14.8032 33.4897 14.4367 33.0553 14.4367 32.5419V30.7253C14.4367 30.2797 14.7116 29.8848 15.0925 29.8396C16.1387 29.7099 17.1271 29.2642 17.8744 28.5759C18.5398 27.961 19.4944 27.8313 20.1453 28.4631C21.9919 30.2515 25.3139 30.2571 27.1461 28.559C27.8066 27.9441 28.7468 27.8256 29.3977 28.4575C31.2539 30.2571 34.5952 30.2571 36.4225 28.5421C37.0975 27.9046 38.0666 27.9159 38.7464 28.5421ZM38.7464 20.4184C39.5082 21.1179 40.5014 21.5693 41.538 21.7103C41.9286 21.7611 42.2082 22.1785 42.2034 22.6298V24.4126C42.2034 24.9259 41.837 25.3603 41.3982 25.3152C40.0386 25.1741 38.7079 24.6608 37.5845 23.8597C34.9327 25.7834 31.0514 25.8116 28.3273 23.8597C25.6755 25.7834 21.7943 25.8116 19.0701 23.8597C17.9467 24.6777 16.6305 25.1798 15.2419 25.3208C14.8032 25.366 14.4367 24.9316 14.4367 24.4182V22.6016C14.4367 22.156 14.7116 21.7611 15.0925 21.7159C16.1387 21.5862 17.1271 21.1405 17.8744 20.4522C18.5398 19.8373 19.4944 19.7076 20.1453 20.3394C21.9919 22.1278 25.3139 22.1334 27.1461 20.4353C27.8066 19.8204 28.7468 19.7019 29.3977 20.3338C31.2539 22.1334 34.5952 22.1334 36.4225 20.4184C37.0975 19.7809 38.0666 19.7922 38.7464 20.4184Z" fill="#4674E8"/>
<path d="M24.9518 75.8175L24.595 76.1678L24.595 76.1678L24.9518 75.8175ZM29.3033 77.2416L28.9424 76.8955L28.9424 76.8955L29.3033 77.2416ZM27.8323 78.7791L27.4703 79.1239L27.8323 79.5041L28.1944 79.1239L27.8323 78.7791ZM41.538 37.9577L41.4733 38.4535L41.4736 38.4535L41.538 37.9577ZM38.7464 36.6658L38.4077 37.0336L38.4083 37.0341L38.7464 36.6658ZM42.2034 38.8773L41.7034 38.8719V38.8773H42.2034ZM41.3982 41.5626L41.3466 42.0599L41.3471 42.06L41.3982 41.5626ZM37.5845 40.1071L37.8748 39.7L37.582 39.4912L37.2909 39.7024L37.5845 40.1071ZM28.3273 40.1071L28.6185 39.7007L28.3255 39.4907L28.0337 39.7024L28.3273 40.1071ZM19.0701 40.1071L19.3614 39.7007L19.0678 39.4903L18.7758 39.7029L19.0701 40.1071ZM15.2419 41.5682L15.1914 41.0708L15.1908 41.0708L15.2419 41.5682ZM15.0925 37.9633L15.1513 38.4599L15.154 38.4595L15.0925 37.9633ZM17.8744 36.6996L18.2131 37.0674L18.2138 37.0668L17.8744 36.6996ZM20.1453 36.5868L19.7971 36.9456L19.7975 36.946L20.1453 36.5868ZM27.1461 36.6827L27.4859 37.0494L27.4867 37.0487L27.1461 36.6827ZM29.3977 36.5812L29.0494 36.9399L29.0496 36.9402L29.3977 36.5812ZM36.4225 36.6658L36.7647 37.0304L36.7658 37.0293L36.4225 36.6658ZM41.538 29.834L41.4733 30.3298L41.4736 30.3298L41.538 29.834ZM38.7464 28.5421L38.4077 28.9099L38.4082 28.9104L38.7464 28.5421ZM42.2034 30.7535L41.7034 30.7482V30.7535H42.2034ZM41.3982 33.4389L41.3466 33.9362L41.3471 33.9363L41.3982 33.4389ZM37.5845 31.9834L37.8748 31.5763L37.582 31.3675L37.2909 31.5787L37.5845 31.9834ZM28.3273 31.9834L28.6185 31.577L28.3255 31.367L28.0337 31.5787L28.3273 31.9834ZM19.0701 31.9834L19.3614 31.577L19.0678 31.3666L18.7758 31.5792L19.0701 31.9834ZM15.2419 33.4445L15.1914 32.9471L15.1908 32.9472L15.2419 33.4445ZM15.0925 29.8396L15.1513 30.3362L15.154 30.3358L15.0925 29.8396ZM17.8744 28.5759L18.2131 28.9437L18.2138 28.9431L17.8744 28.5759ZM20.1453 28.4631L19.7971 28.8219L19.7975 28.8223L20.1453 28.4631ZM27.1461 28.559L27.4859 28.9257L27.4867 28.925L27.1461 28.559ZM29.3977 28.4575L29.0494 28.8162L29.0496 28.8165L29.3977 28.4575ZM36.4225 28.5421L36.7647 28.9067L36.7658 28.9056L36.4225 28.5421ZM41.538 21.7103L41.4706 22.2057L41.4736 22.2061L41.538 21.7103ZM38.7464 20.4184L38.4077 20.7862L38.4082 20.7867L38.7464 20.4184ZM42.2034 22.6298L41.7034 22.6245V22.6298H42.2034ZM41.3982 25.3152L41.3466 25.8125L41.3471 25.8126L41.3982 25.3152ZM37.5845 23.8597L37.8748 23.4526L37.582 23.2438L37.2909 23.455L37.5845 23.8597ZM28.3273 23.8597L28.6185 23.4533L28.3255 23.2433L28.0337 23.455L28.3273 23.8597ZM19.0701 23.8597L19.3614 23.4533L19.0678 23.2429L18.7758 23.4555L19.0701 23.8597ZM15.2419 25.3208L15.1914 24.8234L15.1908 24.8234L15.2419 25.3208ZM15.0925 21.7159L15.1513 22.2125L15.154 22.2121L15.0925 21.7159ZM17.8744 20.4522L18.2131 20.82L18.2138 20.8194L17.8744 20.4522ZM20.1453 20.3394L19.7971 20.6982L19.7975 20.6986L20.1453 20.3394ZM27.1461 20.4353L27.4859 20.802L27.4867 20.8013L27.1461 20.4353ZM29.3977 20.3338L29.0494 20.6925L29.0496 20.6928L29.3977 20.3338ZM36.4225 20.4184L36.7647 20.783L36.7658 20.7819L36.4225 20.4184ZM0.0527344 30.6988C0.0527344 51.1993 15.2306 66.6289 24.595 76.1678L25.3086 75.4672C15.8928 65.876 1.05273 50.7286 1.05273 30.6988H0.0527344ZM28.8066 0.532227C18.9065 0.532227 11.7019 4.69754 6.98301 10.5651C2.27555 16.4185 0.0527344 23.9493 0.0527344 30.6988H1.05273C1.05273 24.1495 3.21414 16.847 7.76226 11.1918C12.299 5.55079 19.2213 1.53223 28.8066 1.53223V0.532227ZM56.5862 30.6988C56.5862 23.9622 54.6141 16.433 50.1512 10.5754C45.6748 4.70021 38.7093 0.532227 28.8066 0.532227V1.53223C38.3893 1.53223 45.0636 5.54812 49.3557 11.1815C53.6612 16.8325 55.5862 24.1365 55.5862 30.6988H56.5862ZM29.6642 77.5876C34.3105 72.7412 41.0339 65.7296 46.5939 57.5932C52.149 49.464 56.5862 40.1509 56.5862 30.6988H55.5862C55.5862 39.853 51.2804 48.9627 45.7683 57.029C40.2611 65.088 33.593 72.0446 28.9424 76.8955L29.6642 77.5876ZM28.1944 79.1239C28.6558 78.6395 29.147 78.1271 29.6642 77.5876L28.9424 76.8955C28.4254 77.4348 27.933 77.9484 27.4703 78.4343L28.1944 79.1239ZM24.595 76.1678C25.6338 77.2259 26.6005 78.2106 27.4703 79.1239L28.1944 78.4343C27.3184 77.5144 26.3461 76.524 25.3086 75.4672L24.595 76.1678ZM41.6028 37.4619C40.6658 37.3395 39.7688 36.9258 39.0846 36.2975L38.4083 37.0341C39.2477 37.8049 40.337 38.3051 41.4733 38.4535L41.6028 37.4619ZM42.7034 38.8826C42.7099 38.2722 42.3276 37.5561 41.6025 37.4619L41.4736 38.4535C41.5031 38.4574 41.5558 38.4783 41.6107 38.5559C41.666 38.6341 41.7048 38.7477 41.7034 38.8719L42.7034 38.8826ZM42.7034 40.6599V38.8773H41.7034V40.6599H42.7034ZM41.3471 42.06C41.7572 42.1021 42.1094 41.915 42.3414 41.6502C42.5714 41.3878 42.7034 41.0322 42.7034 40.6599H41.7034C41.7034 40.801 41.6522 40.9194 41.5893 40.9912C41.5284 41.0607 41.478 41.0681 41.4494 41.0652L41.3471 42.06ZM37.2942 40.5142C38.4857 41.3638 39.8982 41.9097 41.3466 42.0599L41.4498 41.0652C40.179 40.9334 38.9301 40.4525 37.8748 39.7L37.2942 40.5142ZM28.0361 40.5135C30.9347 42.5905 35.0515 42.5623 37.8781 40.5118L37.2909 39.7024C34.8138 41.4993 31.1682 41.5276 28.6185 39.7007L28.0361 40.5135ZM18.7789 40.5135C21.6775 42.5905 25.7943 42.5623 28.6209 40.5118L28.0337 39.7024C25.5567 41.4993 21.911 41.5276 19.3614 39.7007L18.7789 40.5135ZM15.2924 42.0657C16.7686 41.9157 18.1691 41.3817 19.3645 40.5113L18.7758 39.7029C17.7244 40.4685 16.4924 40.9386 15.1914 41.0708L15.2924 42.0657ZM13.9367 40.6656C13.9367 41.0379 14.0688 41.3934 14.2987 41.6559C14.5307 41.9206 14.8829 42.1078 15.2931 42.0656L15.1908 41.0708C15.1622 41.0738 15.1117 41.0663 15.0508 40.9968C14.9879 40.925 14.9367 40.8067 14.9367 40.6656H13.9367ZM13.9367 38.849V40.6656H14.9367V38.849H13.9367ZM15.0336 37.4668C14.3192 37.5515 13.9367 38.2421 13.9367 38.849H14.9367C14.9367 38.726 14.9753 38.6199 15.0262 38.5499C15.0763 38.481 15.1237 38.4631 15.1513 38.4599L15.0336 37.4668ZM17.5357 36.3319C16.8693 36.9456 15.9794 37.3495 15.0309 37.4671L15.154 38.4595C16.298 38.3176 17.3849 37.8302 18.2131 37.0674L17.5357 36.3319ZM20.4936 36.228C19.5973 35.358 18.334 35.5941 17.5351 36.3324L18.2138 37.0668C18.7456 36.5753 19.3916 36.552 19.7971 36.9456L20.4936 36.228ZM26.8062 36.316C25.9993 37.0639 24.8414 37.4539 23.656 37.4422C22.4715 37.4305 21.3095 37.0183 20.4932 36.2276L19.7975 36.946C20.8277 37.9437 22.2501 38.4284 23.6462 38.4422C25.0415 38.4559 26.4607 37.9996 27.4859 37.0494L26.8062 36.316ZM29.7459 36.2224C28.8539 35.3565 27.6053 35.5721 26.8054 36.3168L27.4867 37.0487C28.0079 36.5635 28.6397 36.5422 29.0494 36.9399L29.7459 36.2224ZM36.0803 36.3012C35.2761 37.056 34.1155 37.4512 32.925 37.4415C31.7354 37.4318 30.5667 37.0181 29.7457 36.2222L29.0496 36.9402C30.0849 37.9438 31.5149 38.43 32.9168 38.4415C34.3179 38.4529 35.7416 37.9906 36.7647 37.0304L36.0803 36.3012ZM39.0852 36.298C38.2187 35.4999 36.9515 35.4785 36.0792 36.3023L36.7658 37.0293C37.2435 36.5782 37.9145 36.5793 38.4077 37.0336L39.0852 36.298ZM41.6028 29.3382C40.6658 29.2158 39.7688 28.8021 39.0846 28.1738L38.4082 28.9104C39.2477 29.6812 40.337 30.1814 41.4733 30.3298L41.6028 29.3382ZM42.7034 30.7589C42.7099 30.1485 42.3276 29.4324 41.6025 29.3382L41.4736 30.3298C41.5031 30.3337 41.5558 30.3546 41.6107 30.4322C41.666 30.5104 41.7048 30.624 41.7034 30.7482L42.7034 30.7589ZM42.7034 32.5362V30.7535H41.7034V32.5362H42.7034ZM41.3471 33.9363C41.7572 33.9785 42.1094 33.7913 42.3414 33.5265C42.5714 33.2641 42.7034 32.9085 42.7034 32.5362H41.7034C41.7034 32.6773 41.6522 32.7957 41.5893 32.8675C41.5284 32.937 41.478 32.9444 41.4494 32.9415L41.3471 33.9363ZM37.2942 32.3905C38.4857 33.2401 39.8982 33.786 41.3466 33.9362L41.4498 32.9416C40.179 32.8097 38.9301 32.3288 37.8748 31.5763L37.2942 32.3905ZM28.0361 32.3898C30.9347 34.4668 35.0515 34.4386 37.8781 32.3881L37.2909 31.5787C34.8138 33.3756 31.1682 33.4039 28.6185 31.577L28.0361 32.3898ZM18.7789 32.3898C21.6775 34.4668 25.7943 34.4386 28.6209 32.3881L28.0337 31.5787C25.5567 33.3756 21.911 33.4039 19.3614 31.577L18.7789 32.3898ZM15.2924 33.942C16.7686 33.792 18.1691 33.258 19.3645 32.3876L18.7758 31.5792C17.7244 32.3448 16.4924 32.8149 15.1914 32.9471L15.2924 33.942ZM13.9367 32.5419C13.9367 32.9142 14.0688 33.2697 14.2987 33.5322C14.5307 33.7969 14.8829 33.9841 15.2931 33.9419L15.1908 32.9472C15.1622 32.9501 15.1118 32.9426 15.0508 32.8731C14.9879 32.8013 14.9367 32.683 14.9367 32.5419H13.9367ZM13.9367 30.7253V32.5419H14.9367V30.7253H13.9367ZM15.0336 29.3431C14.3192 29.4278 13.9367 30.1184 13.9367 30.7253H14.9367C14.9367 30.6023 14.9753 30.4962 15.0262 30.4262C15.0763 30.3573 15.1237 30.3394 15.1513 30.3362L15.0336 29.3431ZM17.5357 28.2082C16.8693 28.8219 15.9794 29.2258 15.0309 29.3434L15.154 30.3358C16.298 30.194 17.3849 29.7065 18.2131 28.9437L17.5357 28.2082ZM20.4936 28.1044C19.5973 27.2343 18.334 27.4704 17.5351 28.2088L18.2138 28.9431C18.7456 28.4516 19.3916 28.4283 19.7971 28.8219L20.4936 28.1044ZM26.8062 28.1923C25.9993 28.9402 24.8414 29.3302 23.656 29.3185C22.4715 29.3069 21.3095 28.8946 20.4932 28.1039L19.7975 28.8223C20.8277 29.82 22.2501 30.3047 23.6462 30.3185C25.0415 30.3322 26.4607 29.8759 27.4859 28.9257L26.8062 28.1923ZM29.7459 28.0987C28.8539 27.2328 27.6053 27.4484 26.8054 28.1931L27.4867 28.925C28.0079 28.4398 28.6397 28.4185 29.0494 28.8162L29.7459 28.0987ZM36.0803 28.1775C35.2761 28.9323 34.1155 29.3275 32.925 29.3178C31.7354 29.3081 30.5667 28.8944 29.7457 28.0985L29.0496 28.8165C30.0849 29.8201 31.5149 30.3063 32.9168 30.3178C34.3179 30.3292 35.7416 29.8669 36.7647 28.9067L36.0803 28.1775ZM39.0852 28.1743C38.2187 27.3762 36.9515 27.3548 36.0792 28.1786L36.7658 28.9056C37.2435 28.4545 37.9145 28.4556 38.4077 28.9099L39.0852 28.1743ZM41.6055 21.2149C40.6648 21.0869 39.7675 20.6772 39.0846 20.0501L38.4082 20.7867C39.249 21.5587 40.3381 22.0516 41.4706 22.2057L41.6055 21.2149ZM42.7034 22.6352C42.7099 22.0248 42.3276 21.3087 41.6025 21.2145L41.4736 22.2061C41.5031 22.21 41.5558 22.2309 41.6107 22.3085C41.666 22.3867 41.7048 22.5003 41.7034 22.6245L42.7034 22.6352ZM42.7034 24.4126V22.6298H41.7034V24.4126H42.7034ZM41.3471 25.8126C41.7572 25.8548 42.1094 25.6676 42.3414 25.4028C42.5714 25.1404 42.7034 24.7848 42.7034 24.4126H41.7034C41.7034 24.5536 41.6522 24.672 41.5893 24.7438C41.5284 24.8133 41.478 24.8207 41.4494 24.8178L41.3471 25.8126ZM37.2942 24.2668C38.4857 25.1164 39.8982 25.6623 41.3466 25.8125L41.4498 24.8179C40.179 24.686 38.9301 24.2051 37.8748 23.4526L37.2942 24.2668ZM28.0361 24.2661C30.9347 26.3431 35.0515 26.3149 37.8781 24.2644L37.2909 23.455C34.8138 25.2519 31.1682 25.2802 28.6185 23.4533L28.0361 24.2661ZM18.7789 24.2661C21.6775 26.3431 25.7943 26.3149 28.6209 24.2644L28.0337 23.455C25.5567 25.2519 21.911 25.2802 19.3614 23.4533L18.7789 24.2661ZM15.2924 25.8183C16.7686 25.6683 18.1691 25.1343 19.3645 24.2639L18.7758 23.4555C17.7244 24.2211 16.4924 24.6912 15.1914 24.8234L15.2924 25.8183ZM13.9367 24.4182C13.9367 24.7905 14.0688 25.146 14.2987 25.4085C14.5307 25.6732 14.8829 25.8604 15.2931 25.8182L15.1908 24.8234C15.1622 24.8264 15.1117 24.8189 15.0508 24.7494C14.9879 24.6776 14.9367 24.5593 14.9367 24.4182H13.9367ZM13.9367 22.6016V24.4182H14.9367V22.6016H13.9367ZM15.0336 21.2194C14.3192 21.3041 13.9367 21.9947 13.9367 22.6016H14.9367C14.9367 22.4786 14.9753 22.3726 15.0262 22.3025C15.0763 22.2336 15.1237 22.2157 15.1513 22.2125L15.0336 21.2194ZM17.5357 20.0845C16.8693 20.6982 15.9794 21.1021 15.0309 21.2197L15.154 22.2121C16.298 22.0703 17.3849 21.5828 18.2131 20.82L17.5357 20.0845ZM20.4936 19.9807C19.5973 19.1106 18.334 19.3467 17.5351 20.085L18.2138 20.8194C18.7456 20.3279 19.3916 20.3046 19.7971 20.6982L20.4936 19.9807ZM26.8062 20.0686C25.9993 20.8165 24.8414 21.2065 23.656 21.1948C22.4715 21.1832 21.3095 20.7709 20.4932 19.9802L19.7975 20.6986C20.8277 21.6963 22.2501 22.181 23.6462 22.1948C25.0415 22.2085 26.4607 21.7522 27.4859 20.802L26.8062 20.0686ZM29.7459 19.975C28.8539 19.1091 27.6053 19.3247 26.8054 20.0694L27.4867 20.8013C28.0079 20.3161 28.6397 20.2948 29.0494 20.6925L29.7459 19.975ZM36.0803 20.0538C35.2761 20.8086 34.1155 21.2038 32.925 21.1941C31.7354 21.1844 30.5667 20.7707 29.7457 19.9748L29.0496 20.6928C30.0849 21.6964 31.5149 22.1826 32.9168 22.1941C34.3179 22.2055 35.7416 21.7432 36.7647 20.783L36.0803 20.0538ZM39.0852 20.0506C38.2187 19.2525 36.9515 19.2311 36.0792 20.0549L36.7658 20.7819C37.2435 20.3308 37.9145 20.3319 38.4077 20.7862L39.0852 20.0506Z" fill="#BBCEFF"/>
</svg>
