<svg width="48" height="65" viewBox="0 0 24 24" fill="none" xmlns="http://www.w3.org/2000/svg">
<path d="M43.5156 127.377C6.81273 73.8946 0 68.4056 0 48.75C0 21.826 21.7141 0 48.5 0C75.2859 0 97 21.826 97 48.75C97 68.4056 90.1873 73.8946 53.4844 127.377C51.0758 130.874 45.9239 130.874 43.5156 127.377ZM48.5 69.0625C59.6608 69.0625 68.7083 59.9683 68.7083 48.75C68.7083 37.5317 59.6608 28.4375 48.5 28.4375C37.3392 28.4375 28.2917 37.5317 28.2917 48.75C28.2917 59.9683 37.3392 69.0625 48.5 69.0625Z" fill="#282625"/>
</svg>
